{
  "images": [
    {"uri": "data:image/png;base64,"},
    {"uri": "data:image/png;base64,"}
  ],
  "accessors": [
    {
      "componentType": 5126,
      "min": [
        -3.5,
        -6,
        -6
      ],
      "byteOffset": 0,
      "bufferView": 0,
      "max": [
        3.5,
        6,
        6
      ],
      "count": 456,
      "type": "VEC3"
    },
    {
      "componentType": 5126,
      "byteOffset": 0,
      "bufferView": 1,
      "count": 456,
      "type": "VEC3"
    },
    {
      "componentType": 5126,
      "byteOffset": 0,
      "bufferView": 2,
      "count": 456,
      "type": "VEC2"
    },
    {
      "componentType": 5126,
      "byteOffset": 0,
      "bufferView": 2,
      "count": 456,
      "type": "VEC2"
    }
  ],
  "textures": [
    {
      "source": 0,
      "sampler": 0
    },
    {
      "source": 1,
      "sampler": 0
    }
  ],
  "buffers": [
    {
      "byteLength": 5472,
      "uri": "data:application/octet-stream;base64,"
    },
    {
      "byteLength": 5472,
      "uri": "data:application/octet-stream;base64,"
    },
    {
      "byteLength": 3648,
      "uri": "data:application/octet-stream;base64,"
    }
  ],
  "bufferViews": [
    {
      "byteOffset": 0,
      "byteLength": 5472,
      "buffer": 0,
      "byteStride": 12,
      "target": 34962
    },
    {
      "byteOffset": 0,
      "byteLength": 5472,
      "buffer": 1,
      "byteStride": 12,
      "target": 34962
    },
    {
      "byteOffset": 0,
      "byteLength": 3648,
      "buffer": 2,
      "byteStride": 8,
      "target": 34962
    }
  ],
  "samplers": [{
    "minFilter": 9728,
    "wrapT": 33071,
    "wrapS": 33071,
    "magFilter": 9728
  }],
  "scene": 0,
  "nodes": [
    {
      "children": [
        1,
        2
      ],
      "rotation": [
        0,
        -1,
        0,
        -4.371138828673793E-8
      ],
      "translation": [
        0,
        0,
        0
      ],
      "name": "Root-Global",
      "scale": [
        -1,
        1,
        1
      ]
    },
    {
      "rotation": [
        0,
        0,
        0,
        1
      ],
      "translation": [
        0,
        0,
        0
      ],
      "name": "Root-Local",
      "scale": [
        1,
        1,
        1
      ]
    },
    {
      "children": [
        3,
        4
      ],
      "rotation": [
        0,
        0,
        0,
        -1
      ],
      "translation": [
        0,
        25,
        -0
      ],
      "name": "Controller-Global",
      "scale": [
        1,
        1,
        1
      ]
    },
    {
      "rotation": [
        0,
        0,
        0,
        1
      ],
      "translation": [
        0,
        0,
        0
      ],
      "name": "Controller-Local",
      "scale": [
        1,
        1,
        1
      ]
    },
    {
      "children": [
        5,
        6,
        10,
        28,
        46
      ],
      "rotation": [
        0.024936184287071228,
        -0.3486040234565735,
        -0.020423704758286476,
        -0.9367157220840454
      ],
      "translation": [
        -0.13362351059913635,
        0,
        -0.2865194082260132
      ],
      "name": "Hip-Global",
      "scale": [
        1,
        1,
        1
      ]
    },
    {
      "rotation": [
        0,
        0,
        0,
        1
      ],
      "translation": [
        0,
        0.5000001788139343,
        0
      ],
      "name": "Hip-Local",
      "scale": [
        1,
        1,
        1
      ]
    },
    {
      "children": [
        7,
        8
      ],
      "rotation": [
        0,
        0,
        0,
        1
      ],
      "translation": [
        -0,
        1,
        -0
      ],
      "name": "Equip_Hip-Global",
      "scale": [
        1,
        1,
        1
      ]
    },
    {
      "rotation": [
        0,
        0,
        0,
        1
      ],
      "translation": [
        2.5,
        -6.499999523162842,
        -9
      ],
      "name": "Equip_Hip-Local",
      "scale": [
        1,
        1,
        1
      ],
      "mesh": 0
    },
    {
      "children": [9],
      "rotation": [
        0,
        0,
        0,
        1
      ],
      "translation": [
        -0,
        0,
        -0
      ],
      "name": "Extra_Hip-Global",
      "scale": [
        1,
        1,
        1
      ]
    },
    {
      "rotation": [
        0,
        0,
        0,
        1
      ],
      "translation": [
        0,
        0,
        0
      ],
      "name": "Extra_Hip-Local",
      "scale": [
        1,
        1,
        1
      ]
    },
    {
      "children": [
        11,
        12
      ],
      "rotation": [
        0,
        -0.04361938685178757,
        0,
        0.9990482330322266
      ],
      "translation": [
        -0,
        2.5,
        -0
      ],
      "name": "Belly-Global",
      "scale": [
        1,
        1,
        1
      ]
    },
    {
      "rotation": [
        0,
        0,
        0,
        1
      ],
      "translation": [
        0,
        -1.9999998807907104,
        0
      ],
      "name": "Belly-Local",
      "scale": [
        1,
        1,
        1
      ]
    },
    {
      "children": [
        13,
        14,
        20,
        26
      ],
      "rotation": [
        0.10149019211530685,
        -0.0676262304186821,
        -5.269302055239677E-4,
        0.9925352931022644
      ],
      "translation": [
        -2.384185791015625E-7,
        4,
        -2.384185791015625E-7
      ],
      "name": "Chest-Global",
      "scale": [
        1,
        1,
        1
      ]
    },
    {
      "rotation": [
        0,
        0,
        0,
        1
      ],
      "translation": [
        0,
        7,
        0
      ],
      "name": "Chest-Local",
      "scale": [
        1,
        1,
        1
      ]
    },
    {
      "children": [
        15,
        16
      ],
      "rotation": [
        0.04837554320693016,
        0.08960095047950745,
        -0.6422677040100098,
        -0.7596865296363831
      ],
      "translation": [
        -7.240797996520996,
        8.777605056762695,
        0.025720596313476562
      ],
      "name": "Left_Arm-Global",
      "scale": [
        1,
        1,
        1
      ]
    },
    {
      "rotation": [
        0,
        0,
        0,
        -1
      ],
      "translation": [
        -3.999999761581421,
        1.5,
        0
      ],
      "name": "Left_Arm-Local",
      "scale": [
        1,
        1,
        1
      ]
    },
    {
      "children": [
        17,
        18
      ],
      "rotation": [
        -0.007678602822124958,
        -0.3502742052078247,
        0.03697062283754349,
        -0.9358857870101929
      ],
      "translation": [
        -11,
        0,
        -0.5
      ],
      "name": "Left_Forearm-Global",
      "scale": [
        1,
        1,
        1
      ]
    },
    {
      "rotation": [
        0,
        0,
        0,
        -1
      ],
      "translation": [
        -3.999999761581421,
        0.5533373951911926,
        0.449748158454895
      ],
      "name": "Left_Forearm-Local",
      "scale": [
        1,
        1,
        1
      ]
    },
    {
      "children": [19],
      "rotation": [
        0.7041504383087158,
        0.06459256261587143,
        -0.06459256261587143,
        -0.7041504383087158
      ],
      "translation": [
        -7.999998092651367,
        0,
        -0
      ],
      "name": "Left_Hand-Global",
      "scale": [
        1,
        1,
        1
      ]
    },
    {
      "rotation": [
        0,
        0,
        0,
        -1
      ],
      "translation": [
        -5,
        0,
        -0.5000002384185791
      ],
      "name": "Left_Hand-Local",
      "scale": [
        1,
        1,
        1
      ]
    },
    {
      "children": [
        21,
        22
      ],
      "rotation": [
        -0.16371241211891174,
        0.07585414499044418,
        0.5801981687545776,
        -0.7942382097244263
      ],
      "translation": [
        7.260709285736084,
        8.94572639465332,
        0.04383039474487305
      ],
      "name": "Right_Arm-Global",
      "scale": [
        1,
        1,
        1
      ]
    },
    {
      "rotation": [
        0,
        0,
        0,
        1
      ],
      "translation": [
        3.999999761581421,
        1.5,
        0
      ],
      "name": "Right_Arm-Local",
      "scale": [
        1,
        1,
        1
      ]
    },
    {
      "children": [
        23,
        24
      ],
      "rotation": [
        0.011922839097678661,
        -0.2730770409107208,
        -0.04195842146873474,
        0.961002767086029
      ],
      "translation": [
        11,
        0,
        -0.5
      ],
      "name": "Right_Forearm-Global",
      "scale": [
        1,
        1,
        1
      ]
    },
    {
      "rotation": [
        0,
        0,
        0,
        1
      ],
      "translation": [
        3,
        0.5565102696418762,
        0.446826696395874
      ],
      "name": "Right_Forearm-Local",
      "scale": [
        1,
        1,
        1
      ]
    },
    {
      "children": [25],
      "rotation": [
        0.8420889377593994,
        -0.2049817591905594,
        -0.2134198695421219,
        -0.4509110450744629
      ],
      "translation": [
        8,
        0,
        -0
      ],
      "name": "Right_Hand-Global",
      "scale": [
        1,
        1,
        1
      ]
    },
    {
      "rotation": [
        0,
        0,
        0,
        1
      ],
      "translation": [
        5,
        0,
        -0.5000002384185791
      ],
      "name": "Right_Hand-Local",
      "scale": [
        1,
        1,
        1
      ]
    },
    {
      "children": [27],
      "rotation": [
        -0.02802947722375393,
        -0.2516522705554962,
        0.027885397896170616,
        0.9670097827911377
      ],
      "translation": [
        -0.008239611983299255,
        10.053176879882812,
        0.08920606225728989
      ],
      "name": "Head-Global",
      "scale": [
        1,
        1,
        1
      ]
    },
    {
      "rotation": [
        0,
        0,
        0,
        1
      ],
      "translation": [
        -5.7220458984375E-6,
        10.999994277954102,
        0
      ],
      "name": "Head-Local",
      "scale": [
        1,
        1,
        1
      ]
    },
    {
      "children": [
        29,
        30,
        34
      ],
      "rotation": [
        -0.021620899438858032,
        0.1706068068742752,
        0.032234132289886475,
        0.9845744967460632
      ],
      "translation": [
        4,
        -0.5,
        -0
      ],
      "name": "Right_Thigh-Global",
      "scale": [
        1,
        1,
        1
      ]
    },
    {
      "rotation": [
        0,
        0,
        0,
        1
      ],
      "translation": [
        -0.05321788787841797,
        -6,
        -0.05703401565551758
      ],
      "name": "Right_Thigh-Local",
      "scale": [
        1,
        1,
        1
      ]
    },
    {
      "children": [
        31,
        32
      ],
      "rotation": [
        0,
        0,
        0,
        1
      ],
      "translation": [
        -0,
        -6,
        3
      ],
      "name": "Equip_Right_Thigh-Global",
      "scale": [
        1,
        1,
        1
      ]
    },
    {
      "rotation": [
        0,
        0,
        0,
        1
      ],
      "translation": [
        0,
        0,
        0
      ],
      "name": "Equip_Right_Thigh-Local",
      "scale": [
        1,
        1,
        1
      ]
    },
    {
      "children": [33],
      "rotation": [
        0,
        0,
        0,
        1
      ],
      "translation": [
        -0,
        0,
        -0
      ],
      "name": "Extra_Right_Thigh-Global",
      "scale": [
        1,
        1,
        1
      ]
    },
    {
      "rotation": [
        0,
        0,
        0,
        1
      ],
      "translation": [
        0,
        0,
        0
      ],
      "name": "Extra_Right_Thigh-Local",
      "scale": [
        1,
        1,
        1
      ]
    },
    {
      "children": [
        35,
        36,
        40
      ],
      "rotation": [
        -0.22697238624095917,
        0,
        0,
        -0.9739011526107788
      ],
      "translation": [
        0.5,
        -12,
        -0.5
      ],
      "name": "Right_Leg-Global",
      "scale": [
        1,
        1,
        1
      ]
    },
    {
      "rotation": [
        0,
        0,
        0,
        1
      ],
      "translation": [
        -0.5000002384185791,
        -5,
        -0.5000002384185791
      ],
      "name": "Right_Leg-Local",
      "scale": [
        1,
        1,
        1
      ]
    },
    {
      "children": [
        37,
        38
      ],
      "rotation": [
        0,
        0,
        0,
        1
      ],
      "translation": [
        -0,
        -4.999999046325684,
        1.4892878532409668
      ],
      "name": "Equip_Right_Leg-Global",
      "scale": [
        1,
        1,
        1
      ]
    },
    {
      "rotation": [
        0,
        0,
        0,
        1
      ],
      "translation": [
        0,
        0,
        0
      ],
      "name": "Equip_Right_Leg-Local",
      "scale": [
        1,
        1,
        1
      ]
    },
    {
      "children": [39],
      "rotation": [
        0,
        0,
        0,
        1
      ],
      "translation": [
        -0,
        0,
        -0
      ],
      "name": "Extra_Right_Leg-Global",
      "scale": [
        1,
        1,
        1
      ]
    },
    {
      "rotation": [
        0,
        0,
        0,
        1
      ],
      "translation": [
        0,
        0,
        0
      ],
      "name": "Extra_Right_Leg-Local",
      "scale": [
        1,
        1,
        1
      ]
    },
    {
      "children": [
        41,
        42
      ],
      "rotation": [
        0.15110071003437042,
        -0.06325068324804306,
        0.041885655373334885,
        -0.9856031537055969
      ],
      "translation": [
        -0,
        -10,
        0.5
      ],
      "name": "Right_Foot-Global",
      "scale": [
        1,
        1,
        1
      ]
    },
    {
      "rotation": [
        0,
        0,
        0,
        1
      ],
      "translation": [
        0,
        -0.5000001192092896,
        2.000000238418579
      ],
      "name": "Right_Foot-Local",
      "scale": [
        1,
        1,
        1
      ]
    },
    {
      "children": [
        43,
        44
      ],
      "rotation": [
        0,
        0,
        0,
        1
      ],
      "translation": [
        -0,
        1,
        3
      ],
      "name": "Equip_Right_Foot-Global",
      "scale": [
        1,
        1,
        1
      ]
    },
    {
      "rotation": [
        0,
        0,
        0,
        1
      ],
      "translation": [
        0,
        0,
        0
      ],
      "name": "Equip_Right_Foot-Local",
      "scale": [
        1,
        1,
        1
      ]
    },
    {
      "children": [45],
      "rotation": [
        0,
        0,
        0,
        1
      ],
      "translation": [
        -0,
        0,
        -0
      ],
      "name": "Extra_Right_Foot-Global",
      "scale": [
        1,
        1,
        1
      ]
    },
    {
      "rotation": [
        0,
        0,
        0,
        1
      ],
      "translation": [
        0,
        0,
        0
      ],
      "name": "Extra_Right_Foot-Local",
      "scale": [
        1,
        1,
        1
      ]
    },
    {
      "children": [
        47,
        48,
        52
      ],
      "rotation": [
        0.08630699664354324,
        0.018885578960180283,
        0.048602424561977386,
        -0.9949030876159668
      ],
      "translation": [
        -4,
        -0.5,
        -0
      ],
      "name": "Left_Thigh-Global",
      "scale": [
        1,
        1,
        1
      ]
    },
    {
      "rotation": [
        0,
        0,
        0,
        -1
      ],
      "translation": [
        0.05242013931274414,
        -6,
        -0.05489158630371094
      ],
      "name": "Left_Thigh-Local",
      "scale": [
        1,
        1,
        1
      ]
    },
    {
      "children": [
        49,
        50
      ],
      "rotation": [
        0,
        0,
        0,
        1
      ],
      "translation": [
        -4.76837158203125E-7,
        -6,
        3.000000238418579
      ],
      "name": "Equip_Left_Thigh-Global",
      "scale": [
        1,
        1,
        1
      ]
    },
    {
      "rotation": [
        0,
        0,
        0,
        1
      ],
      "translation": [
        0,
        0,
        0
      ],
      "name": "Equip_Left_Thigh-Local",
      "scale": [
        1,
        1,
        1
      ]
    },
    {
      "children": [51],
      "rotation": [
        0,
        0,
        0,
        1
      ],
      "translation": [
        -0,
        0,
        -0
      ],
      "name": "Extra_Left_Thigh-Global",
      "scale": [
        1,
        1,
        1
      ]
    },
    {
      "rotation": [
        0,
        0,
        0,
        1
      ],
      "translation": [
        0,
        0,
        0
      ],
      "name": "Extra_Left_Thigh-Local",
      "scale": [
        1,
        1,
        1
      ]
    },
    {
      "children": [
        53,
        54,
        58
      ],
      "rotation": [
        0.17088082432746887,
        0.0041305506601929665,
        0.037877656519412994,
        0.9845547676086426
      ],
      "translation": [
        -0.5,
        -12,
        -0.5
      ],
      "name": "Left_Leg-Global",
      "scale": [
        1,
        1,
        1
      ]
    },
    {
      "rotation": [
        0,
        0,
        0,
        -1
      ],
      "translation": [
        -0.5000002384185791,
        -5,
        -0.5000002384185791
      ],
      "name": "Left_Leg-Local",
      "scale": [
        1,
        1,
        1
      ]
    },
    {
      "children": [
        55,
        56
      ],
      "rotation": [
        0,
        0,
        0,
        1
      ],
      "translation": [
        4.76837158203125E-7,
        -5.000000953674316,
        1.4790178537368774
      ],
      "name": "Equip_Left_Leg-Global",
      "scale": [
        1,
        1,
        1
      ]
    },
    {
      "rotation": [
        0,
        0,
        0,
        1
      ],
      "translation": [
        0,
        0,
        0
      ],
      "name": "Equip_Left_Leg-Local",
      "scale": [
        1,
        1,
        1
      ]
    },
    {
      "children": [57],
      "rotation": [
        0,
        0,
        0,
        1
      ],
      "translation": [
        -0,
        0,
        -0
      ],
      "name": "Extra_Left_Leg-Global",
      "scale": [
        1,
        1,
        1
      ]
    },
    {
      "rotation": [
        0,
        0,
        0,
        1
      ],
      "translation": [
        0,
        0,
        0
      ],
      "name": "Extra_Left_Leg-Local",
      "scale": [
        1,
        1,
        1
      ]
    },
    {
      "children": [
        59,
        60
      ],
      "rotation": [
        0.05562447011470795,
        0.20956440269947052,
        -0.019276265054941177,
        -0.9760211110115051
      ],
      "translation": [
        0,
        -10,
        0.5
      ],
      "name": "Left_Foot-Global",
      "scale": [
        1,
        1,
        1
      ]
    },
    {
      "rotation": [
        0,
        0,
        0,
        -1
      ],
      "translation": [
        0,
        -0.5000001192092896,
        2.000000238418579
      ],
      "name": "Left_Foot-Local",
      "scale": [
        1,
        1,
        1
      ]
    },
    {
      "children": [
        61,
        62
      ],
      "rotation": [
        0,
        0,
        0,
        1
      ],
      "translation": [
        -9.5367431640625E-7,
        0.9999997615814209,
        3
      ],
      "name": "Equip_Left_Foot-Global",
      "scale": [
        1,
        1,
        1
      ]
    },
    {
      "rotation": [
        0,
        0,
        0,
        1
      ],
      "translation": [
        0,
        0,
        0
      ],
      "name": "Equip_Left_Foot-Local",
      "scale": [
        1,
        1,
        1
      ]
    },
    {
      "children": [63],
      "rotation": [
        0,
        0,
        0,
        1
      ],
      "translation": [
        -0,
        0,
        -0
      ],
      "name": "Extra_Left_Foot-Global",
      "scale": [
        1,
        1,
        1
      ]
    },
    {
      "rotation": [
        0,
        0,
        0,
        1
      ],
      "translation": [
        0,
        0,
        0
      ],
      "name": "Extra_Left_Foot-Local",
      "scale": [
        1,
        1,
        1
      ]
    }
  ],
  "materials": [{
    "name": "Equip_Hip-Material",
    "emissiveTexture": {
      "index": 1,
      "texCoord": 1
    },
    "pbrMetallicRoughness": {
      "baseColorTexture": {"index": 0},
      "metallicFactor": 0,
      "roughnessFactor": 1
    },
    "emissiveFactor": [
      1,
      1,
      1
    ]
  }],
  "animations": [],
  "scenes": [{"nodes": [0]}],
  "asset": {
    "generator": "VoxEdit Beta e2de1723",
    "version": "2.0"
  },
  "meshes": [{
    "primitives": [{
      "mode": 4,
      "material": 0,
      "attributes": {
        "POSITION": 0,
        "TEXCOORD_1": 3,
        "TEXCOORD_0": 2,
        "NORMAL": 1
      }
    }],
    "name": "Equip_Hip-Mesh"
  }]
}