<svg width="436" height="105" viewBox="0 0 436 105" fill="none" xmlns="http://www.w3.org/2000/svg">
<path d="M138.277 27.7315H122.181V77.7736H129.431V59.6596H138.567C142.798 59.5619 146.823 57.8074 149.781 54.7715C152.739 51.7355 154.395 47.6594 154.393 43.4151C154.433 41.3371 154.037 39.2739 153.23 37.3594C152.424 35.4448 151.225 33.7216 149.712 32.3015C146.649 29.3268 142.54 27.6844 138.277 27.7315V27.7315ZM144.616 50.1248C143.832 51.0302 142.855 51.7483 141.758 52.2264C140.662 52.7044 139.472 52.9303 138.277 52.8876H129.431V34.4204H138.277C139.447 34.358 140.617 34.538 141.715 34.949C142.813 35.36 143.814 35.9932 144.657 36.8093C145.463 37.6858 146.088 38.7132 146.497 39.8325C146.905 40.9518 147.09 42.141 147.039 43.332C147.111 45.8212 146.246 48.2463 144.616 50.1248Z" fill="#13132B"/>
<path d="M164.564 27.7305H157.21V77.7726H164.564V27.7305Z" fill="#13132B"/>
<path d="M199.305 46.0923C195.825 43.0502 191.367 41.3685 186.751 41.356C183.503 41.3301 180.313 42.2074 177.532 43.8903C174.784 45.5159 172.518 47.8462 170.966 50.6416C169.395 53.4816 168.582 56.6798 168.604 59.9271C168.596 62.3508 169.066 64.7523 169.988 66.9928C170.91 69.2334 172.265 71.2689 173.975 72.9818C175.685 74.6947 177.716 76.0511 179.952 76.973C182.187 77.8948 184.582 78.3637 186.999 78.3527C190.497 78.3709 193.926 77.3833 196.881 75.5068C199.798 73.6877 202.163 71.1012 203.717 68.0286L203.862 67.7377H195.099C194.046 68.8796 192.762 69.7833 191.333 70.3887C189.905 70.994 188.364 71.2871 186.813 71.2484C184.235 71.3432 181.717 70.4522 179.77 68.7556C178.855 68.0052 178.097 67.0814 177.539 66.037C176.981 64.9926 176.634 63.8482 176.517 62.6691H205.043V62.4822C205.192 61.4156 205.261 60.3393 205.25 59.2624C205.21 56.7761 204.662 54.3244 203.639 52.0591C202.616 49.7938 201.141 47.763 199.305 46.0923V46.0923ZM193.566 50.8285C195.382 52.2828 196.694 54.2746 197.316 56.5203H176.6C177.178 54.2907 178.43 52.2952 180.184 50.8077C182.097 49.2568 184.499 48.4394 186.958 48.5019C189.366 48.4685 191.708 49.293 193.566 50.8285V50.8285Z" fill="#13132B"/>
<path d="M235.577 43.8096C232.772 42.1755 229.586 41.3128 226.341 41.3086C223.096 41.3045 219.908 42.159 217.098 43.7859C214.288 45.4129 211.957 47.7546 210.338 50.5745C208.72 53.3945 207.872 56.5928 207.881 59.8464C207.859 62.2326 208.309 64.5995 209.205 66.8102C210.101 69.0208 211.425 71.0314 213.101 72.7256C214.775 74.471 216.777 75.8656 218.993 76.8284C221.208 77.7913 223.592 78.3031 226.007 78.3343H226.359C228.774 78.3519 231.152 77.736 233.257 76.5479C234.949 75.6794 236.379 74.3743 237.4 72.7672V77.7735H244.754V59.8464C244.778 56.6028 243.945 53.4107 242.341 50.5941C240.736 47.7776 238.417 45.4369 235.619 43.8096H235.577ZM234.314 51.7449C236.368 53.9328 237.484 56.8419 237.421 59.8464C237.46 61.342 237.201 62.8303 236.661 64.2247C236.12 65.6192 235.308 66.8918 234.272 67.9686C233.272 69.0456 232.054 69.897 230.701 70.4664C229.347 71.0358 227.888 71.3103 226.421 71.2715C224.943 71.3025 223.474 71.0249 222.108 70.4563C220.742 69.8877 219.509 69.0405 218.487 67.9686C217.433 66.9133 216.601 65.6557 216.042 64.2708C215.483 62.886 215.209 61.4024 215.235 59.9087C215.21 58.4189 215.482 56.9391 216.033 55.5554C216.584 54.1717 217.404 52.9117 218.446 51.8488C219.476 50.7774 220.717 49.9325 222.09 49.3675C223.462 48.8024 224.938 48.5297 226.421 48.5666C227.885 48.5191 229.342 48.777 230.7 49.3241C232.059 49.8713 233.29 50.6956 234.314 51.7449V51.7449Z" fill="#13132B"/>
<path d="M263.564 56.4995C259.566 55.6271 256.107 54.8585 256.107 52.0541C256.107 49.6445 258.489 47.8995 261.907 47.8995C263.468 47.854 265.008 48.2654 266.34 49.0836C266.882 49.3922 267.332 49.8394 267.645 50.3795C267.958 50.9196 268.122 51.5333 268.122 52.158V52.3657H275.186V52.158C275.245 50.6255 274.94 49.1007 274.295 47.71C273.65 46.3193 272.684 45.1025 271.478 44.1604C268.727 42.1941 265.407 41.1937 262.031 41.3145C258.692 41.2451 255.418 42.2497 252.688 44.1811C251.49 44.9918 250.511 46.0879 249.838 47.3713C249.166 48.6546 248.821 50.0852 248.835 51.5348C248.835 59.5116 255.361 60.9242 261.14 62.1913C265.387 63.1261 269.054 63.9363 269.054 67.2184C269.054 69.9812 266.527 71.6846 262.466 71.6846C260.656 71.7614 258.864 71.3065 257.308 70.3759C256.688 70.0438 256.168 69.5503 255.803 68.9472C255.439 68.344 255.243 67.6536 255.237 66.9484V66.7406H248.193V66.9484C248.15 69.2025 248.882 71.4028 250.265 73.1803C251.719 74.9199 253.56 76.2938 255.639 77.192C257.718 78.0902 259.978 78.4877 262.238 78.3527C265.851 78.5087 269.422 77.5282 272.451 75.5484C273.734 74.6286 274.763 73.3967 275.44 71.9686C276.118 70.5405 276.423 68.9631 276.325 67.3846C276.201 59.2416 269.261 57.7252 263.564 56.4995Z" fill="#13132B"/>
<path d="M284.239 46.1357C281.484 49.0231 280.096 53.3647 280.096 59.0565V77.7522H287.45V59.0565C287.45 52.4299 290.122 48.9193 295.177 48.9193H296.192V41.7734H295.28C293.237 41.6785 291.197 42.0182 289.294 42.77C287.391 43.5218 285.668 44.6689 284.239 46.1357V46.1357Z" fill="#13132B"/>
<path d="M332.112 34.729C327.159 30.1238 320.638 27.59 313.883 27.6454H299.195V77.7707H313.883C320.639 77.8121 327.157 75.2718 332.112 70.6663C334.476 68.3212 336.353 65.5292 337.634 62.4521C338.914 59.3749 339.574 56.0736 339.574 52.7392C339.574 49.4048 338.914 46.1035 337.634 43.0264C336.353 39.9492 334.476 37.1573 332.112 34.8121V34.729ZM306.549 34.729H314.214C316.64 34.7045 319.045 35.1701 321.288 36.098C323.53 37.0259 325.563 38.3972 327.265 40.13C328.895 41.7949 330.177 43.77 331.034 45.9391C331.892 48.1081 332.307 50.4273 332.258 52.76C332.308 55.1008 331.89 57.428 331.029 59.6044C330.168 61.7807 328.881 63.7621 327.244 65.4315C325.554 67.1427 323.54 68.4981 321.32 69.4184C319.1 70.3388 316.72 70.8054 314.318 70.791H306.549V34.729Z" fill="#13132B"/>
<path d="M357.323 27.7305L338.078 77.7726H345.681L350.259 65.7243H371.617L376.216 77.7726H383.798L364.553 27.7305H357.323ZM352.766 58.89L360.927 37.8677L369.11 58.89H352.766Z" fill="#13132B"/>
<path d="M431.651 42.7072C430.38 39.6626 428.537 36.8912 426.223 34.5434C423.883 32.2286 421.109 30.4002 418.061 29.1632C414.878 27.8031 411.454 27.0968 407.994 27.0859C404.56 27.1012 401.165 27.8075 398.009 29.1632C394.907 30.4679 392.092 32.3742 389.727 34.7726C387.362 37.171 385.492 40.0143 384.225 43.1392C382.959 46.2641 382.32 49.6092 382.346 52.9822C382.373 56.3553 383.063 59.6899 384.378 62.7947C385.638 65.844 387.49 68.6119 389.826 70.9378C394.703 75.7031 401.246 78.3649 408.056 78.3537C411.517 78.3446 414.94 77.6381 418.124 76.2764C421.17 75.0271 423.942 73.1923 426.286 70.8754C431.056 66.0343 433.735 59.505 433.743 52.6991C433.731 49.2604 433.019 45.8605 431.651 42.7072V42.7072ZM426.327 52.7614C426.357 55.1526 425.916 57.5262 425.028 59.7459C424.141 61.9656 422.825 63.9876 421.156 65.6958C419.487 67.4041 417.498 68.7649 415.304 69.7001C413.109 70.6353 410.751 71.1265 408.367 71.1455H407.642C405.252 71.1283 402.889 70.6345 400.691 69.693C398.493 68.7515 396.504 67.3811 394.839 65.6614C393.165 63.9655 391.848 61.9498 390.966 59.7339C390.083 57.518 389.653 55.147 389.702 52.7614C389.659 50.3356 390.106 47.9263 391.014 45.6775C391.922 43.4288 393.274 41.387 394.987 39.6744C396.701 37.9618 398.742 36.6136 400.987 35.7105C403.233 34.8075 405.637 34.3681 408.056 34.4188H408.429C410.812 34.4378 413.167 34.9283 415.361 35.8622C417.554 36.7961 419.542 38.1551 421.211 39.8611C422.88 41.5672 424.196 43.5867 425.085 45.804C425.973 48.0213 426.417 50.3927 426.389 52.7821L426.327 52.7614Z" fill="#13132B"/>
<path d="M100.181 53.1593H88.5804C82.4489 53.1593 76.5686 50.7169 72.233 46.3693C67.8974 42.0217 65.4617 36.1251 65.4617 29.9766V18.3438H62.1472V29.9766C62.1472 33.0298 61.5458 36.0529 60.3775 38.8723C59.2093 41.6918 57.4971 44.252 55.3393 46.4061C53.1816 48.5602 50.6208 50.2656 47.8039 51.4245C44.9871 52.5834 41.9697 53.173 38.925 53.1593H27.3242V56.5869H38.925C41.9697 56.5732 44.9871 57.1627 47.8039 58.3216C50.6208 59.4805 53.1816 61.186 55.3393 63.3401C57.4971 65.4941 59.2093 68.0544 60.3775 70.8738C61.5458 73.6933 62.1472 76.7164 62.1472 79.7695V91.4855H65.4617V79.8526C65.4508 76.8012 66.0407 73.7777 67.1977 70.9555C68.3546 68.1332 70.0558 65.5678 72.2036 63.4063C74.3515 61.2447 76.9037 59.5297 79.714 58.3594C82.5243 57.1892 85.5374 56.5868 88.5804 56.5869H100.181V53.1593Z" fill="#FEBF46"/>
<path d="M36.4388 17.4937H30.6384C27.5727 17.4937 24.6325 16.2725 22.4647 14.0987C20.2969 11.9249 19.0791 8.97659 19.0791 5.90238V0.0859375H17.3597V5.90238C17.3597 7.42457 17.0607 8.93187 16.4798 10.3382C15.8989 11.7445 15.0474 13.0223 13.9741 14.0987C12.9007 15.175 11.6264 16.0289 10.2239 16.6114C8.8215 17.1939 7.31837 17.4937 5.80038 17.4937H0V19.2179H5.80038C8.8661 19.2179 11.8063 20.4391 13.9741 22.6129C16.1418 24.7867 17.3597 27.735 17.3597 30.8092V36.6257H19.0791V30.8092C19.0764 29.2862 19.3735 27.7777 19.9534 26.3702C20.5334 24.9626 21.3847 23.6837 22.4587 22.6068C23.5326 21.5299 24.808 20.6762 26.2116 20.0946C27.6153 19.5131 29.1197 19.2151 30.6384 19.2179H36.4388V17.4937Z" fill="#FEBF46"/>
<path d="M36.3145 90.9892H33.4143C31.8922 90.9893 30.4314 90.3873 29.3493 89.3138C28.2672 88.2404 27.651 86.7822 27.6347 85.2559V82.3477H26.7853V85.2559C26.7853 86.793 26.1764 88.2671 25.0925 89.354C24.0086 90.4409 22.5385 91.0516 21.0057 91.0516H18.1055V91.9032H21.0057C21.7664 91.9032 22.5197 92.0538 23.2222 92.3464C23.9248 92.639 24.5629 93.0677 25.0998 93.6081C25.6368 94.1485 26.0621 94.7898 26.3513 95.4954C26.6406 96.201 26.788 96.9568 26.7853 97.7197V100.628H27.6347V97.7197C27.6347 96.1826 28.2436 94.7084 29.3275 93.6215C30.4114 92.5346 31.8815 91.924 33.4143 91.924H36.3145V90.9892Z" fill="#FEBF46"/>
</svg>
