<svg width="436" height="105" viewBox="0 0 436 105" fill="none" xmlns="http://www.w3.org/2000/svg">
<path d="M138.277 28.1853H122.181V78.2275H129.432V60.1134H138.567C142.799 60.0157 146.824 58.2612 149.782 55.2253C152.74 52.1894 154.395 48.1132 154.394 43.8689C154.434 41.7909 154.037 39.7278 153.231 37.8132C152.424 35.8987 151.225 34.1755 149.712 32.7554C146.65 29.7806 142.54 28.1383 138.277 28.1853ZM144.616 50.5786C143.832 51.4841 142.856 52.2022 141.759 52.6802C140.662 53.1583 139.472 53.3842 138.277 53.3414H129.432V34.8742H138.277C139.447 34.8119 140.618 34.9918 141.715 35.4028C142.813 35.8138 143.815 36.4471 144.658 37.2631C145.463 38.1396 146.088 39.167 146.497 40.2863C146.906 41.4057 147.09 42.5949 147.04 43.7858C147.112 46.2751 146.247 48.7002 144.616 50.5786Z" fill="white"/>
<path d="M164.564 28.1853H157.21V78.2275H164.564V28.1853Z" fill="white"/>
<path d="M199.305 46.5488C195.825 43.5067 191.368 41.8251 186.751 41.8126C183.504 41.7867 180.313 42.6639 177.533 44.3469C174.785 45.9724 172.518 48.3027 170.966 51.0981C169.396 53.9382 168.582 57.1363 168.604 60.3836C168.596 62.8074 169.066 65.2088 169.988 67.4494C170.91 69.69 172.265 71.7254 173.975 73.4383C175.685 75.1512 177.717 76.5077 179.952 77.4295C182.188 78.3513 184.583 78.8203 187 78.8093C190.497 78.8274 193.926 77.8398 196.881 75.9634C199.799 74.1443 202.163 71.5577 203.717 68.4851L203.862 68.1943H195.1C194.046 69.3361 192.763 70.2399 191.334 70.8452C189.905 71.4505 188.364 71.7436 186.813 71.7049C184.235 71.7998 181.718 70.9087 179.77 69.2122C178.856 68.4617 178.098 67.5379 177.54 66.4935C176.982 65.4492 176.634 64.3047 176.518 63.1257H205.043V62.9387C205.193 61.8722 205.262 60.7959 205.25 59.7189C205.21 57.2326 204.662 54.781 203.64 52.5156C202.617 50.2503 201.142 48.2195 199.305 46.5488ZM193.567 51.2851C195.383 52.7393 196.695 54.7312 197.316 56.9769H176.601C177.178 54.7473 178.43 52.7517 180.184 51.2643C182.098 49.7134 184.499 48.896 186.958 48.9585C189.366 48.9251 191.708 49.7495 193.567 51.2851Z" fill="white"/>
<path d="M235.578 44.2637C232.772 42.6296 229.586 41.7669 226.341 41.7627C223.097 41.7586 219.909 42.6131 217.099 44.24C214.289 45.867 211.957 48.2087 210.338 51.0286C208.72 53.8486 207.872 57.0469 207.881 60.3005C207.859 62.6867 208.309 65.0536 209.205 67.2643C210.101 69.4749 211.426 71.4855 213.101 73.1797C214.775 74.9251 216.778 76.3197 218.993 77.2825C221.209 78.2454 223.593 78.7572 226.007 78.7884H226.359C228.775 78.806 231.153 78.1901 233.258 77.002C234.949 76.1335 236.38 74.8284 237.401 73.2213V78.2276H244.755V60.3005C244.778 57.0569 243.946 53.8648 242.341 51.0482C240.737 48.2317 238.418 45.891 235.619 44.2637H235.578ZM234.314 52.199C236.369 54.3869 237.484 57.296 237.422 60.3005C237.46 61.7961 237.202 63.2844 236.661 64.6788C236.12 66.0733 235.309 67.3459 234.273 68.4227C233.272 69.4997 232.055 70.3511 230.701 70.9205C229.348 71.4899 227.889 71.7644 226.422 71.7256C224.943 71.7566 223.474 71.479 222.108 70.9104C220.742 70.3418 219.509 69.4946 218.487 68.4227C217.433 67.3674 216.601 66.1098 216.043 64.7249C215.484 63.3401 215.209 61.8565 215.235 60.3628C215.211 58.873 215.482 57.3932 216.033 56.0095C216.585 54.6258 217.405 53.3658 218.446 52.3029C219.476 51.2315 220.717 50.3866 222.09 49.8216C223.463 49.2566 224.938 48.9838 226.422 49.0207C227.885 48.9732 229.342 49.2311 230.701 49.7782C232.06 50.3254 233.29 51.1497 234.314 52.199Z" fill="white"/>
<path d="M263.565 56.9561C259.567 56.0836 256.107 55.315 256.107 52.5107C256.107 50.101 258.489 48.3561 261.907 48.3561C263.468 48.3105 265.009 48.7219 266.341 49.5401C266.882 49.8488 267.332 50.296 267.645 50.8361C267.958 51.3762 268.123 51.9899 268.122 52.6145V52.8223H275.186V52.6145C275.246 51.082 274.94 49.5573 274.295 48.1666C273.651 46.7758 272.685 45.5591 271.478 44.6169C268.728 42.6506 265.407 41.6502 262.032 41.771C258.692 41.7016 255.418 42.7062 252.689 44.6377C251.49 45.4484 250.511 46.5444 249.839 47.8278C249.166 49.1111 248.822 50.5417 248.836 51.9913C248.836 59.9682 255.361 61.3807 261.141 62.6479C265.388 63.5827 269.054 64.3928 269.054 67.675C269.054 70.4378 266.527 72.1412 262.467 72.1412C260.657 72.2179 258.864 71.763 257.309 70.8325C256.688 70.5004 256.168 70.0068 255.804 69.4037C255.439 68.8006 255.243 68.1101 255.237 67.4049V67.1972H248.194V67.4049C248.151 69.659 248.882 71.8593 250.265 73.6368C251.72 75.3764 253.56 76.7503 255.64 77.6485C257.719 78.5467 259.979 78.9442 262.239 78.8093C265.851 78.9652 269.422 77.9847 272.452 76.0049C273.735 75.0851 274.763 73.8533 275.441 72.4252C276.119 70.9971 276.423 69.4196 276.325 67.8411C276.201 59.6981 269.261 58.1817 263.565 56.9561Z" fill="white"/>
<path d="M284.239 46.5903C281.484 49.4777 280.096 53.8193 280.096 59.5111V78.2068H287.45V59.5111C287.45 52.8845 290.122 49.3739 295.177 49.3739H296.192V42.228H295.281C293.238 42.1331 291.198 42.4728 289.295 43.2246C287.392 43.9764 285.669 45.1234 284.239 46.5903Z" fill="white"/>
<path d="M332.113 35.1858C327.159 30.5806 320.638 28.0467 313.883 28.1022H299.196V78.2275H313.883C320.639 78.2689 327.158 75.7286 332.113 71.1231C334.477 68.7779 336.353 65.986 337.634 62.9089C338.915 59.8317 339.574 56.5304 339.574 53.196C339.574 49.8616 338.915 46.5603 337.634 43.4831C336.353 40.406 334.477 37.614 332.113 35.2689V35.1858ZM306.55 35.1858H314.215C316.64 35.1613 319.046 35.6268 321.288 36.5548C323.53 37.4827 325.563 38.854 327.265 40.5868C328.896 42.2517 330.177 44.2268 331.035 46.3958C331.892 48.5649 332.308 50.8841 332.258 53.2168C332.308 55.5576 331.891 57.8848 331.03 60.0611C330.169 62.2375 328.882 64.2188 327.245 65.8883C325.554 67.5995 323.54 68.9549 321.32 69.8752C319.101 70.7955 316.72 71.2622 314.318 71.2477H306.55V35.1858Z" fill="white"/>
<path d="M357.323 28.1853L338.079 78.2275H345.681L350.259 66.1791H371.617L376.216 78.2275H383.798L364.553 28.1853H357.323ZM352.766 59.3448L360.928 38.3225L369.111 59.3448H352.766Z" fill="white"/>
<path d="M431.651 43.1628C430.38 40.1182 428.538 37.3468 426.224 34.999C423.883 32.6841 421.109 30.8557 418.062 29.6188C414.878 28.2587 411.455 27.5524 407.994 27.5415C404.561 27.5567 401.165 28.2631 398.009 29.6188C394.907 30.9235 392.093 32.8297 389.727 35.2281C387.362 37.6265 385.492 40.4698 384.226 43.5948C382.959 46.7197 382.321 50.0647 382.347 53.4378C382.373 56.8109 383.063 60.1455 384.378 63.2503C385.639 66.2996 387.491 69.0675 389.827 71.3933C394.704 76.1586 401.247 78.8205 408.056 78.8093C411.517 78.8001 414.941 78.0937 418.124 76.732C421.17 75.4826 423.943 73.6478 426.286 71.331C431.057 66.4899 433.736 59.9606 433.744 53.1546C433.731 49.716 433.019 46.3161 431.651 43.1628ZM426.327 53.2169C426.358 55.6081 425.916 57.9817 425.029 60.2014C424.142 62.4211 422.826 64.4431 421.157 66.1514C419.488 67.8597 417.499 69.2205 415.304 70.1557C413.109 71.0909 410.752 71.5821 408.367 71.6011H407.642C405.252 71.5838 402.889 71.0901 400.691 70.1486C398.494 69.2071 396.504 67.8366 394.84 66.117C393.166 64.4211 391.849 62.4054 390.966 60.1895C390.084 57.9736 389.654 55.6025 389.702 53.2169C389.66 50.7912 390.106 48.3818 391.014 46.1331C391.923 43.8844 393.274 41.8426 394.988 40.13C396.701 38.4174 398.742 37.0692 400.988 36.1661C403.233 35.263 405.637 34.8237 408.056 34.8744H408.429C410.812 34.8934 413.168 35.3839 415.361 36.3178C417.555 37.2517 419.543 38.6107 421.212 40.3167C422.88 42.0227 424.196 44.0423 425.085 46.2596C425.974 48.4769 426.417 50.8483 426.39 53.2377L426.327 53.2169Z" fill="white"/>
<path d="M100.181 53.6166H88.5803C82.4489 53.6166 76.5686 51.1741 72.233 46.8265C67.8974 42.4789 65.4617 36.5823 65.4617 30.4339V18.801H62.1472V30.4339C62.1472 33.4871 61.5458 36.5101 60.3775 39.3296C59.2093 42.149 57.4971 44.7093 55.3393 46.8634C53.1816 49.0174 50.6208 50.7229 47.8039 51.8818C44.9871 53.0407 41.9697 53.6303 38.925 53.6166H27.3242V57.0441H38.925C41.9697 57.0304 44.9871 57.62 47.8039 58.7789C50.6208 59.9378 53.1816 61.6433 55.3393 63.7973C57.4971 65.9514 59.2093 68.5117 60.3775 71.3311C61.5458 74.1506 62.1472 77.1736 62.1472 80.2268V91.9428H65.4617V80.3099C65.4508 77.2585 66.0407 74.235 67.1977 71.4128C68.3546 68.5905 70.0558 66.025 72.2036 63.8635C74.3515 61.702 76.9037 59.9869 79.714 58.8167C82.5243 57.6465 85.5374 57.0441 88.5803 57.0441H100.181V53.6166Z" fill="#FEBF46"/>
<path d="M36.4388 17.9493H30.6384C27.5727 17.9493 24.6325 16.7281 22.4647 14.5543C20.2969 12.3805 19.0791 9.43216 19.0791 6.35794V0.541504H17.3597V6.35794C17.3597 7.88014 17.0607 9.38743 16.4798 10.7938C15.8989 12.2001 15.0474 13.4779 13.9741 14.5543C12.9007 15.6306 11.6264 16.4844 10.2239 17.0669C8.8215 17.6495 7.31837 17.9493 5.80038 17.9493H0V19.6734H5.80038C8.8661 19.6734 11.8063 20.8947 13.9741 23.0685C16.1418 25.2423 17.3597 28.1906 17.3597 31.2648V37.0812H19.0791V31.2648C19.0764 29.7418 19.3735 28.2333 19.9534 26.8257C20.5334 25.4182 21.3847 24.1393 22.4587 23.0624C23.5326 21.9855 24.808 21.1318 26.2116 20.5502C27.6153 19.9687 29.1197 19.6707 30.6384 19.6734H36.4388V17.9493Z" fill="#FEBF46"/>
<path d="M36.3145 91.4443H33.4143C31.8922 91.4444 30.4314 90.8423 29.3493 89.7689C28.2672 88.6954 27.651 87.2372 27.6347 85.711V82.8027H26.7853V85.711C26.7853 87.2481 26.1764 88.7222 25.0925 89.8091C24.0086 90.896 22.5385 91.5066 21.0057 91.5066H18.1055V92.3583H21.0057C21.7664 92.3583 22.5197 92.5089 23.2222 92.8015C23.9248 93.094 24.5629 93.5228 25.0998 94.0632C25.6368 94.6036 26.0621 95.2449 26.3513 95.9505C26.6406 96.656 26.788 97.4119 26.7853 98.1748V101.083H27.6347V98.1748C27.6347 96.6377 28.2436 95.1635 29.3275 94.0766C30.4114 92.9897 31.8815 92.3791 33.4143 92.3791H36.3145V91.4443Z" fill="#FEBF46"/>
</svg>
