<svg width="101" height="101" viewBox="0 0 101 101" fill="none" xmlns="http://www.w3.org/2000/svg">
<path d="M100.181 53.0751H88.5804C82.4489 53.0751 76.5686 50.6326 72.233 46.285C67.8974 41.9374 65.4617 36.0408 65.4617 29.8924V18.2595H62.1472V29.8924C62.1472 32.9456 61.5458 35.9686 60.3775 38.7881C59.2093 41.6075 57.4971 44.1678 55.3393 46.3219C53.1816 48.4759 50.6208 50.1814 47.8039 51.3403C44.9871 52.4992 41.9697 53.0888 38.925 53.0751H27.3242V56.5026H38.925C41.9697 56.4889 44.9871 57.0785 47.8039 58.2374C50.6208 59.3963 53.1816 61.1018 55.3393 63.2558C57.4971 65.4099 59.2093 67.9702 60.3775 70.7896C61.5458 73.6091 62.1472 76.6321 62.1472 79.6853V91.4013H65.4617V79.7684C65.4508 76.717 66.0407 73.6935 67.1977 70.8712C68.3546 68.049 70.0558 65.4835 72.2036 63.322C74.3515 61.1605 76.9037 59.4454 79.714 58.2752C82.5243 57.105 85.5374 56.5026 88.5804 56.5026H100.181V53.0751Z" fill="#FEBF46"/>
<path d="M36.4388 17.4078H30.6384C27.5727 17.4078 24.6325 16.1866 22.4647 14.0128C20.2969 11.839 19.0791 8.89065 19.0791 5.81644V0H17.3597V5.81644C17.3597 7.33864 17.0607 8.84593 16.4798 10.2523C15.8989 11.6586 15.0474 12.9364 13.9741 14.0128C12.9007 15.0891 11.6264 15.9429 10.2239 16.5254C8.8215 17.108 7.31837 17.4078 5.80038 17.4078H0V19.1319H5.80038C8.8661 19.1319 11.8063 20.3532 13.9741 22.527C16.1418 24.7008 17.3597 27.6491 17.3597 30.7233V36.5397H19.0791V30.7233C19.0764 29.2003 19.3735 27.6918 19.9534 26.2842C20.5334 24.8767 21.3847 23.5978 22.4587 22.5209C23.5326 21.444 24.808 20.5902 26.2116 20.0087C27.6153 19.4271 29.1197 19.1292 30.6384 19.1319H36.4388V17.4078Z" fill="#FEBF46"/>
<path d="M36.3145 90.9028H33.4143C31.8922 90.9029 30.4314 90.3008 29.3493 89.2274C28.2672 88.1539 27.651 86.6957 27.6347 85.1695V82.2612H26.7853V85.1695C26.7853 86.7066 26.1764 88.1807 25.0925 89.2676C24.0086 90.3545 22.5385 90.9651 21.0057 90.9651H18.1055V91.8168H21.0057C21.7664 91.8168 22.5197 91.9674 23.2222 92.26C23.9248 92.5525 24.5629 92.9813 25.0998 93.5217C25.6368 94.062 26.0621 94.7034 26.3513 95.409C26.6406 96.1145 26.788 96.8704 26.7853 97.6333V100.541H27.6347V97.6333C27.6347 96.0962 28.2436 94.622 29.3275 93.5351C30.4114 92.4482 31.8815 91.8376 33.4143 91.8376H36.3145V90.9028Z" fill="#FEBF46"/>
</svg>
