<svg width="194" height="195" viewBox="0 0 194 195" fill="none" xmlns="http://www.w3.org/2000/svg">
<g filter="url(#filter0_d_357_999)">
<path d="M95 0L102.604 15.3722L112.979 1.71677L117.536 18.2502L130.308 6.80505L131.654 23.9021L146.361 15.0809L144.447 32.1236L160.557 26.2453L155.452 42.6177L172.385 39.8946L164.273 55.005L181.415 55.5356L170.591 68.8378L187.322 72.6029L174.176 83.6162L189.892 90.4797L174.899 98.8061L189.033 108.52L172.735 113.858L184.775 126.071L167.761 128.229L177.272 142.5L160.158 141.399L166.796 157.212L150.199 152.891L153.725 169.675L138.246 162.292L138.532 179.439L124.729 169.26L121.765 186.152L110.138 173.544L104.03 189.57L95 174.99L85.9697 189.57L79.8618 173.544L68.2354 186.152L65.2707 169.26L51.4685 179.439L51.7541 162.292L36.2749 169.675L39.8006 152.891L23.2038 157.212L29.8421 141.399L12.7276 142.5L22.2385 128.229L5.22492 126.071L17.2648 113.858L0.966965 108.52L15.1006 98.8061L0.107605 90.4797L15.8242 83.6162L2.6779 72.6029L19.4094 68.8378L8.58496 55.5356L25.7266 55.005L17.6153 39.8946L34.5476 42.6177L29.4425 26.2453L45.5535 32.1236L43.6391 15.0809L58.3465 23.9021L59.6921 6.80505L72.4642 18.2502L77.0211 1.71677L87.3965 15.3722L95 0Z" fill="#FF6600"/>
<path d="M105.39 17.4896L111.485 9.46841L114.162 19.1801L115.663 24.6279L119.872 20.8567L127.374 14.1339L128.164 24.1767L128.608 29.8101L133.454 26.9036L142.093 21.722L140.968 31.7329L140.338 37.3485L145.646 35.4116L155.11 31.9586L152.111 41.5758L150.429 46.9706L156.008 46.0733L165.954 44.4737L161.19 53.3496L158.517 58.3285L164.165 58.5033L174.234 58.815L167.876 66.6287L164.309 71.0118L169.822 72.2524L179.65 74.4641L171.928 80.9333L167.596 84.5622L172.775 86.8237L182.007 90.8553L173.2 95.7463L168.26 98.4898L172.917 101.691L181.219 107.396L171.646 110.532L166.276 112.291L170.243 116.315L177.315 123.489L167.321 124.757L161.715 125.468L164.849 130.17L170.436 138.553L160.383 137.906L154.743 137.543L156.931 142.754L160.83 152.042L151.081 149.504L145.612 148.081L146.774 153.611L148.845 163.47L139.753 159.133L134.652 156.7L134.746 162.35L134.914 172.423L126.807 166.443L122.259 163.089L121.282 168.655L119.541 178.577L112.711 171.172L108.88 167.018L106.868 172.298L103.28 181.711L97.9755 173.147L95 168.343L92.0245 173.147L86.7201 181.711L83.1323 172.298L81.1198 167.018L77.2888 171.172L70.4595 178.577L68.718 168.655L67.7412 163.089L63.1933 166.443L55.0859 172.423L55.2537 162.35L55.3478 156.7L50.2474 159.133L41.1548 163.47L43.2258 153.611L44.3875 148.081L38.9189 149.504L29.1699 152.042L33.0692 142.754L35.2566 137.543L29.6173 137.906L19.5643 138.553L25.151 130.17L28.2849 125.468L22.6789 124.757L12.685 123.489L19.7573 116.315L23.7244 112.291L18.3543 110.532L8.78091 107.396L17.083 101.691L21.7401 98.4898L16.7999 95.7463L7.99296 90.8553L17.2249 86.8237L22.4035 84.5622L18.0718 80.9333L10.3497 74.4641L20.1778 72.2524L25.6908 71.0118L22.1242 66.6287L15.7659 58.815L25.8349 58.5033L31.4831 58.3285L28.8104 53.3496L24.0458 44.4737L33.9919 46.0733L39.5711 46.9706L37.8889 41.5758L34.8902 31.9586L44.3538 35.4116L49.6624 37.3485L49.0316 31.7329L47.9071 21.722L56.5462 26.9036L61.3923 29.8101L61.8357 24.1767L62.6261 14.1339L70.1285 20.8567L74.3369 24.6279L75.8384 19.1801L78.5151 9.46841L84.6096 17.4896L88.0283 21.9891L90.5337 16.924L95 7.8943L99.4663 16.924L101.972 21.9891L105.39 17.4896Z" stroke="#F33415" stroke-width="7"/>
</g>
<defs>
<filter id="filter0_d_357_999" x="0.107422" y="0" width="193.785" height="194.57" filterUnits="userSpaceOnUse" color-interpolation-filters="sRGB">
<feFlood flood-opacity="0" result="BackgroundImageFix"/>
<feColorMatrix in="SourceAlpha" type="matrix" values="0 0 0 0 0 0 0 0 0 0 0 0 0 0 0 0 0 0 127 0" result="hardAlpha"/>
<feOffset dx="2" dy="3"/>
<feGaussianBlur stdDeviation="1"/>
<feComposite in2="hardAlpha" operator="out"/>
<feColorMatrix type="matrix" values="0 0 0 0 0 0 0 0 0 0 0 0 0 0 0 0 0 0 0.25 0"/>
<feBlend mode="normal" in2="BackgroundImageFix" result="effect1_dropShadow_357_999"/>
<feBlend mode="normal" in="SourceGraphic" in2="effect1_dropShadow_357_999" result="shape"/>
</filter>
</defs>
</svg>
