<svg width="139" height="43" viewBox="0 0 139 43" fill="none" xmlns="http://www.w3.org/2000/svg">
<path d="M0 8C0 3.58172 3.58172 0 8 0H131C135.418 0 139 3.58172 139 8V34.2778C139 38.6961 135.418 42.2778 131 42.2778H8C3.58172 42.2778 0 38.6961 0 34.2778V8Z" fill="black" fill-opacity="0.8"/>
<path d="M49.7758 14.8572H45.5688V27.9364H47.4639V23.202H49.8516C50.9575 23.1765 52.0096 22.7179 52.7826 21.9245C53.5557 21.131 53.9884 20.0656 53.9881 18.9563C53.9985 18.4132 53.8949 17.874 53.6841 17.3736C53.4733 16.8732 53.16 16.4228 52.7645 16.0516C51.9641 15.2742 50.89 14.8449 49.7758 14.8572ZM51.4325 20.71C51.2276 20.9466 50.9724 21.1343 50.6857 21.2593C50.3991 21.3842 50.0881 21.4433 49.7758 21.4321H47.4639V16.6054H49.7758C50.0816 16.5891 50.3875 16.6362 50.6744 16.7436C50.9613 16.851 51.223 17.0165 51.4434 17.2298C51.6539 17.4589 51.8173 17.7274 51.9242 18.02C52.031 18.3125 52.0792 18.6233 52.066 18.9346C52.0848 19.5852 51.8587 20.219 51.4325 20.71Z" fill="white" fill-opacity="0.8"/>
<path d="M56.6464 14.8569H54.7244V27.9361H56.6464V14.8569Z" fill="white" fill-opacity="0.8"/>
<path d="M65.7263 19.6567C64.8168 18.8616 63.6518 18.4221 62.4452 18.4188C61.5965 18.4121 60.7625 18.6414 60.0358 19.0812C59.3176 19.5061 58.7252 20.1151 58.3195 20.8457C57.9091 21.588 57.6965 22.4239 57.7023 23.2726C57.7001 23.9061 57.823 24.5338 58.064 25.1194C58.3049 25.705 58.659 26.237 59.106 26.6847C59.553 27.1323 60.0839 27.4869 60.6681 27.7278C61.2524 27.9687 61.8784 28.0913 62.5102 28.0884C63.4243 28.0932 64.3205 27.835 65.0928 27.3446C65.8554 26.8692 66.4734 26.1931 66.8795 25.3901L66.9174 25.3141H64.6272C64.3519 25.6125 64.0164 25.8487 63.6429 26.0069C63.2695 26.1651 62.8667 26.2417 62.4614 26.2316C61.7876 26.2564 61.1296 26.0235 60.6206 25.5801C60.3816 25.384 60.1835 25.1425 60.0377 24.8696C59.8918 24.5966 59.801 24.2975 59.7705 23.9893H67.226V23.9404C67.2651 23.6617 67.2832 23.3804 67.2802 23.0989C67.2697 22.4491 67.1265 21.8083 66.8592 21.2162C66.5919 20.6242 66.2063 20.0934 65.7263 19.6567ZM64.2265 20.8946C64.7012 21.2747 65.0441 21.7953 65.2065 22.3822H59.7922C59.9432 21.7995 60.2704 21.2779 60.7289 20.8892C61.2289 20.4838 61.8565 20.2702 62.4993 20.2865C63.1287 20.2778 63.7407 20.4933 64.2265 20.8946Z" fill="white" fill-opacity="0.8"/>
<path d="M75.2067 19.0594C74.4733 18.6323 73.6406 18.4069 72.7926 18.4058C71.9446 18.4047 71.1113 18.628 70.3769 19.0533C69.6425 19.4785 69.033 20.0905 68.61 20.8275C68.187 21.5646 67.9654 22.4005 67.9677 23.2509C67.962 23.8745 68.0796 24.4931 68.3138 25.0709C68.548 25.6487 68.8941 26.1742 69.3321 26.617C69.7695 27.0732 70.293 27.4377 70.872 27.6893C71.4511 27.941 72.0742 28.0748 72.7052 28.0829H72.7973C73.4286 28.0875 74.0501 27.9266 74.6003 27.616C75.0424 27.389 75.4162 27.0479 75.6831 26.6279V27.9363H77.6052V23.2509C77.6113 22.4031 77.3937 21.5688 76.9743 20.8327C76.555 20.0965 75.9488 19.4847 75.2175 19.0594H75.2067ZM74.8764 21.1334C75.4133 21.7053 75.705 22.4656 75.6885 23.2509C75.6986 23.6418 75.631 24.0307 75.4897 24.3952C75.3485 24.7597 75.1363 25.0923 74.8656 25.3737C74.604 25.6552 74.2859 25.8777 73.9321 26.0265C73.5783 26.1754 73.197 26.2471 72.8135 26.237C72.4271 26.2451 72.0432 26.1725 71.6862 26.0239C71.3292 25.8753 71.007 25.6539 70.7399 25.3737C70.4642 25.0979 70.2469 24.7692 70.1009 24.4073C69.9548 24.0453 69.883 23.6575 69.8898 23.2671C69.8834 22.8778 69.9544 22.491 70.0984 22.1293C70.2425 21.7677 70.4569 21.4384 70.729 21.1606C70.9982 20.8806 71.3226 20.6597 71.6814 20.5121C72.0402 20.3644 72.4258 20.2931 72.8135 20.3027C73.196 20.2903 73.5769 20.3577 73.932 20.5007C74.2871 20.6437 74.6087 20.8592 74.8764 21.1334Z" fill="white" fill-opacity="0.8"/>
<path d="M82.5213 22.3767C81.4763 22.1486 80.5722 21.9477 80.5722 21.2148C80.5722 20.585 81.1948 20.1289 82.0882 20.1289C82.4962 20.117 82.8988 20.2246 83.2468 20.4384C83.3884 20.5191 83.506 20.6359 83.5878 20.7771C83.6696 20.9183 83.7126 21.0787 83.7125 21.2419V21.2962H85.5587V21.2419C85.5743 20.8414 85.4945 20.4429 85.326 20.0794C85.1574 19.7159 84.905 19.3979 84.5896 19.1516C83.8708 18.6377 83.0029 18.3763 82.1206 18.4078C81.2478 18.3897 80.3921 18.6523 79.6788 19.1571C79.3655 19.369 79.1096 19.6554 78.9338 19.9909C78.7581 20.3263 78.668 20.7002 78.6717 21.079C78.6717 23.1639 80.3772 23.5331 81.8878 23.8643C82.9978 24.1086 83.9561 24.3203 83.9561 25.1782C83.9561 25.9003 83.2956 26.3455 82.2343 26.3455C81.7613 26.3655 81.2928 26.2467 80.8862 26.0034C80.724 25.9166 80.5882 25.7876 80.4929 25.63C80.3976 25.4724 80.3464 25.2919 80.3448 25.1076V25.0533H78.5039V25.1076C78.4927 25.6967 78.6838 26.2718 79.0453 26.7364C79.4255 27.1911 79.9066 27.5501 80.45 27.7849C80.9934 28.0197 81.5841 28.1236 82.1748 28.0883C83.119 28.129 84.0523 27.8728 84.844 27.3553C85.1794 27.1149 85.4482 26.793 85.6253 26.4197C85.8024 26.0465 85.882 25.6342 85.8565 25.2216C85.824 23.0933 84.0102 22.697 82.5213 22.3767Z" fill="white" fill-opacity="0.8"/>
<path d="M87.9249 19.6677C87.2048 20.4223 86.842 21.5571 86.842 23.0447V27.9311H88.7641V23.0447C88.7641 21.3127 89.4626 20.3952 90.7837 20.3952H91.049V18.5275H90.8107C90.2767 18.5027 89.7435 18.5915 89.2462 18.788C88.7488 18.9845 88.2985 19.2843 87.9249 19.6677Z" fill="white" fill-opacity="0.8"/>
<path d="M100.437 16.6868C99.1426 15.4832 97.4382 14.8209 95.6727 14.8354H91.834V27.9363H95.6727C97.4386 27.9472 99.1422 27.2832 100.437 26.0795C101.055 25.4666 101.546 24.7369 101.88 23.9326C102.215 23.1284 102.387 22.2655 102.387 21.394C102.387 20.5225 102.215 19.6597 101.88 18.8555C101.546 18.0512 101.055 17.3215 100.437 16.7085V16.6868ZM93.7561 16.6868H95.7594C96.3933 16.6804 97.0221 16.8021 97.6081 17.0446C98.1941 17.2872 98.7255 17.6456 99.1704 18.0984C99.5964 18.5336 99.9314 19.0498 100.155 19.6167C100.38 20.1836 100.488 20.7898 100.475 21.3995C100.488 22.0113 100.379 22.6195 100.154 23.1883C99.9292 23.7572 99.5928 24.275 99.165 24.7113C98.7232 25.1586 98.1967 25.5128 97.6166 25.7534C97.0364 25.9939 96.4142 26.1159 95.7864 26.1121H93.7561V16.6868Z" fill="white" fill-opacity="0.8"/>
<path d="M107.026 14.8569L101.997 27.9361H103.984L105.18 24.7871H110.762L111.964 27.9361H113.946L108.916 14.8569H107.026ZM105.835 23.0009L107.969 17.5064L110.107 23.0009H105.835Z" fill="white" fill-opacity="0.8"/>
<path d="M126.453 18.7718C126.121 17.9761 125.639 17.2517 125.035 16.6381C124.423 16.0331 123.698 15.5552 122.901 15.2319C122.069 14.8764 121.175 14.6918 120.27 14.689C119.373 14.6929 118.485 14.8776 117.66 15.2319C116.85 15.5729 116.114 16.0711 115.496 16.698C114.878 17.3248 114.389 18.068 114.058 18.8847C113.727 19.7014 113.56 20.5757 113.567 21.4573C113.574 22.3389 113.754 23.2105 114.098 24.0219C114.427 24.8189 114.911 25.5423 115.522 26.1502C116.796 27.3957 118.507 28.0914 120.286 28.0885C121.191 28.0861 122.086 27.9015 122.918 27.5456C123.714 27.219 124.438 26.7395 125.051 26.1339C126.298 24.8687 126.998 23.1621 127 21.3833C126.997 20.4846 126.811 19.5959 126.453 18.7718ZM125.062 21.3996C125.07 22.0246 124.954 22.6449 124.722 23.2251C124.49 23.8052 124.147 24.3337 123.71 24.7802C123.274 25.2267 122.754 25.5823 122.181 25.8268C121.607 26.0712 120.991 26.1996 120.368 26.2045H120.178C119.553 26.2 118.936 26.071 118.361 25.8249C117.787 25.5788 117.267 25.2206 116.832 24.7712C116.395 24.3279 116.05 23.8011 115.82 23.222C115.589 22.6428 115.477 22.0231 115.489 21.3996C115.478 20.7656 115.595 20.1359 115.832 19.5481C116.07 18.9604 116.423 18.4267 116.871 17.9791C117.319 17.5315 117.852 17.1791 118.439 16.9431C119.026 16.7071 119.654 16.5923 120.286 16.6055H120.384C121.007 16.6105 121.622 16.7387 122.196 16.9828C122.769 17.2269 123.289 17.582 123.725 18.0279C124.161 18.4738 124.505 19.0017 124.737 19.5812C124.969 20.1607 125.085 20.7805 125.078 21.405L125.062 21.3996Z" fill="white" fill-opacity="0.8"/>
<path d="M38.1835 21.872H35.1515C33.5489 21.872 32.012 21.2336 30.8789 20.0973C29.7457 18.961 29.1091 17.4198 29.1091 15.8129V12.7725H28.2428V15.8129C28.2428 16.6109 28.0856 17.401 27.7803 18.1379C27.4749 18.8748 27.0274 19.5439 26.4635 20.1069C25.8995 20.6699 25.2302 21.1157 24.494 21.4186C23.7578 21.7215 22.9691 21.8756 22.1734 21.872H19.1414V22.7678H22.1734C22.9691 22.7642 23.7578 22.9183 24.494 23.2212C25.2302 23.5241 25.8995 23.9699 26.4635 24.5329C27.0274 25.0959 27.4749 25.765 27.7803 26.5019C28.0856 27.2388 28.2428 28.0289 28.2428 28.8269V31.889H29.1091V28.8486C29.1063 28.0511 29.2604 27.2609 29.5628 26.5232C29.8652 25.7856 30.3098 25.1151 30.8712 24.5502C31.4326 23.9852 32.0996 23.537 32.8341 23.2311C33.5687 22.9252 34.3562 22.7678 35.1515 22.7678H38.1835V21.872Z" fill="#FEBF46" fill-opacity="0.8"/>
<path d="M21.5238 12.5498H20.0078C19.2065 12.5498 18.438 12.2306 17.8715 11.6624C17.3049 11.0943 16.9866 10.3237 16.9866 9.52021V8H16.5372V9.52021C16.5372 9.91805 16.459 10.312 16.3072 10.6796C16.1554 11.0471 15.9328 11.3811 15.6523 11.6624C15.3718 11.9437 15.0387 12.1669 14.6722 12.3191C14.3056 12.4714 13.9128 12.5498 13.516 12.5498H12V13.0004H13.516C14.3173 13.0004 15.0857 13.3196 15.6523 13.8877C16.2189 14.4559 16.5372 15.2265 16.5372 16.0299V17.5501H16.9866V16.0299C16.9859 15.6319 17.0635 15.2376 17.2151 14.8697C17.3667 14.5019 17.5892 14.1676 17.8699 13.8861C18.1506 13.6047 18.4839 13.3815 18.8508 13.2295C19.2176 13.0775 19.6108 12.9997 20.0078 13.0004H21.5238V12.5498Z" fill="#FEBF46" fill-opacity="0.8"/>
<path d="M21.4914 31.7586H20.7334C20.3355 31.7586 19.9537 31.6013 19.6709 31.3207C19.3881 31.0401 19.227 30.659 19.2228 30.2601V29.5H19.0008V30.2601C19.0008 30.6618 18.8416 31.0471 18.5583 31.3312C18.275 31.6153 17.8908 31.7749 17.4902 31.7749H16.7322V31.9975H17.4902C17.689 31.9975 17.8859 32.0368 18.0695 32.1133C18.2531 32.1898 18.4199 32.3018 18.5603 32.4431C18.7006 32.5843 18.8117 32.7519 18.8873 32.9363C18.9629 33.1207 19.0015 33.3183 19.0008 33.5177V34.2778H19.2228V33.5177C19.2228 33.1159 19.3819 32.7307 19.6652 32.4466C19.9485 32.1625 20.3327 32.0029 20.7334 32.0029H21.4914V31.7586Z" fill="#FEBF46" fill-opacity="0.8"/>
</svg>
