<svg width="175" height="174" viewBox="0 0 175 174" fill="none" xmlns="http://www.w3.org/2000/svg">
<path d="M75.7499 61.0804L114.187 86.5L75.7499 111.92V61.0804Z" fill="white" stroke="black" stroke-width="2"/>
<path d="M16.4317 73.0768L19.5494 64.2725L21.1519 64.84L18.0342 73.6443L16.4317 73.0768ZM7.30417 70.3327L10.6421 60.9062L12.2823 61.487L8.94437 70.9135L7.30417 70.3327ZM7.29412 66.107L8.01512 64.0709L21.5327 68.8575L20.8117 70.8936L7.29412 66.107ZM19.2424 74.6662C19.9005 72.2683 20.9117 68.5739 21.8117 65.0736L23.534 65.6623C22.7384 68.9874 21.8628 72.5388 21.2211 75.0698L19.2424 74.6662ZM14.0762 70.1422L14.9434 70.4493L16.7058 65.4721L15.8386 65.1651L14.0762 70.1422ZM11.9081 69.3745L12.7564 69.6749L14.5189 64.6977L13.6705 64.3973L11.9081 69.3745ZM9.85321 70.6837L12.9175 62.0302L18.7807 64.1064L15.7165 72.7599L9.85321 70.6837ZM7.08529 61.0046L9.13587 60.6062C8.77153 63.193 7.83931 66.7244 6.89448 69.5723C6.41531 69.4875 5.62546 69.4412 5.11841 69.495C5.98115 66.6392 6.80341 63.2387 7.08529 61.0046ZM11.679 61.2734L13.9889 54.7503L16.0627 55.4847L13.7529 62.0078L11.679 61.2734ZM13.6685 55.6552L14.4362 53.4872C14.4362 53.4872 15.1648 53.7664 15.4287 53.8598C23.136 56.78 25.8352 57.9055 26.4632 58.8281C26.9574 59.4698 27.0112 59.9769 26.904 60.6391C26.8102 61.2636 26.4964 62.1496 26.1449 63.0224C25.5028 62.8586 24.4922 62.7766 23.762 62.9212C24.1245 62.1372 24.3782 61.4208 24.5117 61.0437C24.6119 60.7609 24.6221 60.5524 24.4182 60.2892C24.0062 59.6553 21.4013 58.5632 14.1586 55.8288L13.6685 55.6552ZM8.37967 58.0683L9.1474 55.9002C17.1909 58.7696 23.236 60.9315 25.1251 66.5015C24.4649 66.6284 23.4316 67.09 22.8743 67.4655C21.2476 62.4127 15.8953 60.7508 8.37967 58.0683Z" fill="black"/>
<path d="M29.266 49.6111L38.2234 38.7998L39.9637 40.2416L31.0063 51.053L29.266 49.6111ZM17.1399 42.0838L28.6365 28.2076L30.3614 29.6367L18.8648 43.5129L17.1399 42.0838ZM20.2768 43.8776L21.7569 42.0911L32.5529 51.0358L31.0728 52.8223L20.2768 43.8776ZM29.4894 32.7582L30.9823 30.9563L41.7629 39.8882L40.27 41.6901L29.4894 32.7582ZM22.5453 36.5628L24.102 34.6839L27.2591 37.2997L25.7024 39.1786L22.5453 36.5628ZM25.8454 39.0373L27.1597 37.451L32.9042 42.2105L31.5899 43.7967L25.8454 39.0373ZM28.2595 43.271L29.5685 44.3556L33.0903 40.105L31.7812 39.0204L28.2595 43.271ZM25.5489 41.0253L26.8426 42.0971L30.3643 37.8465L29.0707 36.7747L25.5489 41.0253ZM22.7764 41.2995L28.8756 33.9379L35.9138 39.7692L29.8146 47.1308L22.7764 41.2995Z" fill="black"/>
<path d="M45.0248 15.9844C45.2589 16.7044 45.6281 17.8549 45.8688 19.3811C45.999 20.4393 46.0715 21.7163 45.9902 22.6895C46.3361 22.2103 47.1816 21.5559 47.7692 21.2137C49.2037 20.3783 50.7857 20.5911 51.7217 22.1984C52.2652 23.1317 53.4141 24.9853 54.0655 26.0641L51.9916 27.2719C51.5876 26.4193 50.7667 24.9301 50.2059 24.0069C49.5618 22.9008 48.6591 22.9405 47.9332 23.3632C46.9826 23.9168 46.226 25.1212 45.9315 26.1258C45.715 26.9462 45.5934 27.8502 45.4486 28.9529L42.7942 28.6472C43.8187 25.3195 44.0625 22.678 43.6813 20.3541C43.4835 19.2196 43.0942 18.0345 42.6327 17.1228L45.0248 15.9844ZM39.4451 21.3861C40.397 20.9938 41.7162 20.3181 42.5977 19.8048C44.879 18.4763 47.9368 16.5336 50.1811 14.6248L51.3313 16.6397C49.0957 18.4045 45.7124 20.5831 43.6039 21.811C42.8953 22.2236 41.6135 22.9238 40.6127 23.3909L39.4451 21.3861ZM55.9916 18.3232C55.5464 18.7907 54.8145 19.6799 54.3577 20.2468C53.4859 21.333 52.2928 22.8611 51.1513 24.6367C50.0516 26.3649 49.6375 27.6013 50.1911 28.5518C50.7446 29.5024 51.7252 29.2785 53.4016 28.3022C54.8707 27.4467 56.6957 26.1294 58.0354 24.9326L59.2646 27.2023C58.1972 28.0322 56.1793 29.4157 54.5374 30.3718C51.8413 31.9419 49.4267 32.4455 48.1283 30.216C46.7293 27.8136 48.3754 24.9572 49.8455 22.7124C50.9524 20.9569 51.7997 19.908 52.5549 18.8202C53.0578 18.1339 53.5017 17.5051 53.9672 16.7942L55.9916 18.3232Z" fill="black"/>
<path d="M65.7385 18.1615L84.2487 14.8738L84.6335 17.0399L66.1232 20.3276L65.7385 18.1615ZM64.6397 7.28605L81.5549 4.28166L81.9396 6.44776L65.0244 9.45215L64.6397 7.28605ZM68.9974 13.8654L79.8673 11.9347L80.224 13.9433L69.3541 15.8739L68.9974 13.8654ZM78.3503 8.42594L80.6936 8.00973L82.7187 19.4113C82.932 20.6125 82.788 21.2881 82.0274 21.8091C81.2829 22.307 80.1281 22.5527 78.4543 22.85C78.2242 22.2409 77.6682 21.2833 77.232 20.7717C78.3256 20.6385 79.6217 20.3879 79.953 20.3088C80.3075 20.2458 80.4278 20.1229 80.3719 19.8078L78.3503 8.42594ZM66.6927 10.4965L79.2758 8.26156L79.6535 10.3883L69.4138 12.207L71.5193 24.0615L69.176 24.4777L66.6927 10.4965ZM71.9229 6.66277L74.3056 6.23957L76.2292 17.0701L73.8465 17.4933L71.9229 6.66277Z" fill="black"/>
<path d="M96.4317 7.26173L110.137 9.69603L109.728 12L96.0225 9.56567L96.4317 7.26173ZM94.5926 12.9274L108.357 15.3722L107.955 17.6368L94.1904 15.192L94.5926 12.9274ZM91.1996 18.764L109.001 21.9258L108.592 24.2297L90.7904 21.0679L91.1996 18.764ZM101.633 4.50895L104.095 4.94614L101.118 21.7039L98.6569 21.2667L101.633 4.50895ZM97.0425 3.93731L99.3864 4.92238C97.9778 7.82072 96.0017 10.5979 94.13 12.2155C93.7308 11.7181 92.8096 10.8435 92.2586 10.4003C94.108 9.0225 95.851 6.52887 97.0425 3.93731Z" fill="black"/>
<path d="M128.146 14.7006C127.62 15.3661 127.01 16.2145 126.573 16.8857C125.4 18.7019 123.034 22.4856 121.786 24.6287C120.77 26.3743 121.474 27.5485 122.822 28.3335C125.674 29.9942 128.428 29.3991 130.786 28.25L131.242 31.0843C129.152 32.0892 125.36 32.9587 121.419 30.6639C118.585 29.0133 117.495 26.7121 119.216 23.7567C120.564 21.4408 123.357 17.0032 124.222 15.5169C124.706 14.6873 125.12 13.8175 125.374 13.0629L128.146 14.7006Z" fill="black"/>
<path d="M154.382 36.4049C154.035 36.6139 153.612 36.8867 153.199 37.203C152.388 37.823 150.188 39.6195 148.894 40.6913C147.2 42.0949 144.617 44.6508 143.4 45.6589C142.076 46.7562 140.23 46.5973 138.558 44.5798C136.517 42.1157 136.384 40.0437 138.017 38.6911C139.572 37.4024 141.853 37.9287 143.805 40.285C146.612 43.6732 147.041 47.577 147.022 49.7485L144.379 50.0687C144.553 47.4572 144.196 43.9864 142.014 41.3529C141.121 40.2748 140.208 40.0187 139.669 40.4653C139.083 40.9502 139.176 41.7827 140.056 42.8453C140.733 43.6616 141.423 44.0246 142.316 43.2845C143.24 42.5189 145.857 40.0655 147.35 38.8278C148.829 37.6029 150.798 35.9977 151.675 35.2704C151.953 35.0408 152.405 34.6144 152.646 34.3104L154.382 36.4049ZM147.654 31.2002C148.375 32.4468 149.688 34.3455 150.467 35.2849C152.202 37.3794 153.981 39.3076 156.199 41.2627L154.43 42.7019C152.913 41.3096 150.699 39.014 148.785 36.7039C147.969 35.7183 146.627 33.8169 145.908 32.6984L147.654 31.2002ZM144.251 33.8639C144.908 35.0335 146.357 37.0017 147.033 37.818C149.394 40.6671 151.225 42.5007 153.041 44.1908L151.21 45.6811C149.203 43.76 147.72 42.1578 145.296 39.2317C144.543 38.323 143.178 36.5189 142.459 35.4004L144.251 33.8639Z" fill="black"/>
<path d="M168.759 63.5961C168.419 63.653 167.4 63.9503 167.091 64.0382C165.827 64.4223 161.994 65.8219 160.493 66.3748L160.45 63.7378C161.619 63.3239 165.239 62.0421 166.211 61.6129C166.945 61.2893 167.56 60.9869 167.791 60.8624L168.759 63.5961ZM162.624 53.7598C163.619 56.5689 165.532 61.4927 166.367 63.8493C167.048 65.7723 168.081 68.6312 168.436 69.6937L166.198 70.4437C165.841 69.2548 165.216 67.3118 164.235 64.5404C163.02 61.1092 161.541 57.4109 160.382 54.6175L162.624 53.7598ZM160.662 65.9542C157.589 67.0423 155.661 66.4519 154.894 64.2838C154.38 62.8322 154.889 60.615 157.189 59.8006C159.319 59.0462 161.329 60.2866 162.05 62.3228C162.931 64.8113 161.563 66.7598 159.225 67.5876C156.755 68.4621 153.13 68.112 150.201 63.9725L151.491 61.2664C153.324 64.2244 155.475 66.2846 158.774 65.1163C160 64.6824 160.35 63.8156 160.057 62.986C159.796 62.2508 159.027 61.6958 158.028 62.0496C157.179 62.35 156.88 63.2412 157.153 64.0141C157.467 64.9002 158.495 65.4061 160.525 64.0084L160.662 65.9542Z" fill="black"/>
<path d="M158.302 100.111L155.184 108.915L153.582 108.348L156.699 99.5435L158.302 100.111ZM167.429 102.855L164.091 112.282L162.451 111.701L165.789 102.274L167.429 102.855ZM167.439 107.081L166.718 109.117L153.201 104.33L153.922 102.294L167.439 107.081ZM155.491 98.5216C154.833 100.919 153.822 104.614 152.922 108.114L151.2 107.526C151.995 104.2 152.871 100.649 153.512 98.118L155.491 98.5216ZM160.657 103.046L159.79 102.738L158.028 107.716L158.895 108.023L160.657 103.046ZM162.825 103.813L161.977 103.513L160.215 108.49L161.063 108.79L162.825 103.813ZM164.88 102.504L161.816 111.158L155.953 109.081L159.017 100.428L164.88 102.504ZM167.648 112.183L165.598 112.582C165.962 109.995 166.894 106.463 167.839 103.615C168.318 103.7 169.108 103.747 169.615 103.693C168.752 106.549 167.93 109.949 167.648 112.183ZM163.054 111.914L160.745 118.437L158.671 117.703L160.981 111.18L163.054 111.914ZM161.065 117.533L160.297 119.701C160.297 119.701 159.569 119.421 159.305 119.328C151.597 116.408 148.898 115.282 148.27 114.36C147.776 113.718 147.722 113.211 147.83 112.549C147.923 111.924 148.237 111.038 148.589 110.165C149.231 110.329 150.241 110.411 150.971 110.267C150.609 111.051 150.355 111.767 150.222 112.144C150.122 112.427 150.111 112.635 150.315 112.899C150.727 113.532 153.332 114.625 160.575 117.359L161.065 117.533ZM166.354 115.12L165.586 117.288C157.543 114.418 151.497 112.256 149.608 106.686C150.269 106.559 151.302 106.098 151.859 105.722C153.486 110.775 158.838 112.437 166.354 115.12Z" fill="black"/>
<path d="M145.468 123.577L136.51 134.388L134.77 132.946L143.727 122.135L145.468 123.577ZM157.594 131.104L146.097 144.98L144.372 143.551L155.869 129.675L157.594 131.104ZM154.457 129.31L152.977 131.097L142.181 122.152L143.661 120.365L154.457 129.31ZM145.244 140.43L143.751 142.231L132.971 133.3L134.464 131.498L145.244 140.43ZM152.188 136.625L150.632 138.504L147.474 135.888L149.031 134.009L152.188 136.625ZM148.888 134.15L147.574 135.737L141.829 130.977L143.144 129.391L148.888 134.15ZM146.474 129.917L145.165 128.832L141.643 133.083L142.952 134.167L146.474 129.917ZM149.185 132.162L147.891 131.091L144.369 135.341L145.663 136.413L149.185 132.162ZM151.957 131.888L145.858 139.25L138.82 133.419L144.919 126.057L151.957 131.888Z" fill="black"/>
<path d="M129.709 157.203C129.475 156.483 129.105 155.333 128.865 153.807C128.734 152.748 128.662 151.471 128.743 150.498C128.397 150.977 127.552 151.632 126.964 151.974C125.53 152.809 123.948 152.597 123.012 150.989C122.468 150.056 121.319 148.202 120.668 147.124L122.742 145.916C123.146 146.768 123.967 148.258 124.528 149.181C125.172 150.287 126.074 150.247 126.8 149.825C127.751 149.271 128.508 148.067 128.802 147.062C129.019 146.242 129.14 145.338 129.285 144.235L131.939 144.541C130.915 147.868 130.671 150.51 131.052 152.834C131.25 153.968 131.639 155.153 132.101 156.065L129.709 157.203ZM135.288 151.802C134.336 152.194 133.017 152.87 132.136 153.383C129.855 154.711 126.797 156.654 124.552 158.563L123.402 156.548C125.638 154.783 129.021 152.605 131.13 151.377C131.838 150.964 133.12 150.264 134.121 149.797L135.288 151.802ZM118.742 154.865C119.187 154.397 119.919 153.508 120.376 152.941C121.248 151.855 122.441 150.327 123.582 148.551C124.682 146.823 125.096 145.587 124.542 144.636C123.989 143.685 123.008 143.909 121.332 144.886C119.863 145.741 118.038 147.058 116.698 148.255L115.469 145.985C116.536 145.156 118.554 143.772 120.196 142.816C122.892 141.246 125.307 140.742 126.605 142.972C128.004 145.374 126.358 148.231 124.888 150.475C123.781 152.231 122.934 153.28 122.179 154.368C121.676 155.054 121.232 155.683 120.766 156.394L118.742 154.865Z" fill="black"/>
<path d="M108.995 155.026L90.4848 158.314L90.1 156.148L108.61 152.86L108.995 155.026ZM110.094 165.902L93.1786 168.906L92.7939 166.74L109.709 163.736L110.094 165.902ZM105.736 159.322L94.8663 161.253L94.5095 159.244L105.379 157.314L105.736 159.322ZM96.3832 164.762L94.0399 165.178L92.0148 153.776C91.8015 152.575 91.9456 151.9 92.7062 151.379C93.4506 150.881 94.6054 150.635 96.2792 150.338C96.5093 150.947 97.0653 151.904 97.5015 152.416C96.4079 152.549 95.1118 152.8 94.7805 152.879C94.4261 152.942 94.3057 153.065 94.3617 153.38L96.3832 164.762ZM108.041 162.691L95.4577 164.926L95.08 162.8L105.32 160.981L103.214 149.126L105.558 148.71L108.041 162.691ZM102.811 166.525L100.428 166.948L98.5043 156.118L100.887 155.695L102.811 166.525Z" fill="black"/>
<path d="M78.3018 165.926L64.5963 163.492L65.0055 161.188L78.711 163.622L78.3018 165.926ZM80.1409 160.26L66.3763 157.816L66.7786 155.551L80.5431 157.996L80.1409 160.26ZM83.5339 154.424L65.7325 151.262L66.1417 148.958L83.9431 152.12L83.5339 154.424ZM73.1002 168.679L70.6387 168.242L73.6152 151.484L76.0766 151.921L73.1002 168.679ZM77.691 169.25L75.3471 168.265C76.7557 165.367 78.7318 162.59 80.6036 160.972C81.0027 161.47 81.924 162.344 82.475 162.787C80.6255 164.165 78.8826 166.659 77.691 169.25Z" fill="black"/>
<path d="M46.5872 158.487C47.1136 157.822 47.7234 156.973 48.1606 156.302C49.334 154.486 51.6994 150.702 52.9475 148.559C53.964 146.814 53.2592 145.639 51.9111 144.854C49.0594 143.194 46.3058 143.789 43.9471 144.938L43.4916 142.104C45.5812 141.099 49.374 140.229 53.3145 142.524C56.1489 144.175 57.2389 146.476 55.5178 149.431C54.1691 151.747 51.3766 156.185 50.5111 157.671C50.0279 158.5 49.614 159.37 49.3597 160.125L46.5872 158.487Z" fill="black"/>
<path d="M20.352 136.783C20.6983 136.574 21.1216 136.301 21.5348 135.985C22.3457 135.365 24.5454 133.568 25.8391 132.496C27.5332 131.093 30.1166 128.537 31.3332 127.529C32.6577 126.432 34.5036 126.59 36.1751 128.608C38.2167 131.072 38.3491 133.144 36.7166 134.497C35.1611 135.785 32.881 135.259 30.9287 132.903C28.1215 129.515 27.6922 125.611 27.7112 123.439L30.3548 123.119C30.1809 125.731 30.5372 129.201 32.7192 131.835C33.6123 132.913 34.5258 133.169 35.0648 132.722C35.6501 132.238 35.5577 131.405 34.6773 130.342C34.001 129.526 33.3106 129.163 32.4174 129.903C31.4933 130.669 28.8769 133.122 27.383 134.36C25.9046 135.585 23.9359 137.19 23.058 137.917C22.7808 138.147 22.3289 138.573 22.0874 138.877L20.352 136.783ZM27.0796 141.988C26.3585 140.741 25.0451 138.842 24.2668 137.903C22.5314 135.808 20.7521 133.88 18.5349 131.925L20.3034 130.486C21.8205 131.878 24.0341 134.174 25.9481 136.484C26.7647 137.47 28.1063 139.371 28.8252 140.489L27.0796 141.988ZM30.4828 139.324C29.8254 138.154 28.3765 136.186 27.7003 135.37C25.3397 132.521 23.5088 130.687 21.693 128.997L23.523 127.507C25.5303 129.428 27.0135 131.03 29.4379 133.956C30.1907 134.865 31.5556 136.669 32.2746 137.787L30.4828 139.324Z" fill="black"/>
<path d="M5.97411 109.592C6.31464 109.535 7.33387 109.238 7.6422 109.15C8.90652 108.765 12.7392 107.366 14.2407 106.813L14.2834 109.45C13.1145 109.864 9.49474 111.146 8.52224 111.575C7.78815 111.898 7.17386 112.201 6.94212 112.325L5.97411 109.592ZM12.1093 119.428C11.1146 116.619 9.20132 111.695 8.36683 109.339C7.68589 107.416 6.65229 104.557 6.2973 103.494L8.53529 102.744C8.89264 103.933 9.51702 105.876 10.4984 108.647C11.7134 112.079 13.1927 115.777 14.3516 118.57L12.1093 119.428ZM14.0714 107.234C17.1444 106.145 19.0721 106.736 19.8398 108.904C20.3539 110.356 19.8447 112.573 17.5447 113.387C15.4143 114.142 13.405 112.901 12.684 110.865C11.8028 108.376 13.1709 106.428 15.5086 105.6C17.9783 104.726 21.6031 105.076 24.5329 109.215L23.2421 111.921C21.4097 108.963 19.2586 106.903 15.9594 108.071C14.7339 108.505 14.3831 109.372 14.6769 110.202C14.9372 110.937 15.7066 111.492 16.7058 111.138C17.5542 110.838 17.8539 109.947 17.5802 109.174C17.2665 108.288 16.2386 107.782 14.2088 109.179L14.0714 107.234Z" fill="black"/>
</svg>
