<svg width="156" height="150" viewBox="0 0 156 150" fill="none" xmlns="http://www.w3.org/2000/svg">
<path d="M66.75 49.0804L105.187 74.5L66.75 99.9196V49.0804Z" fill="white" stroke="black" stroke-width="2"/>
<path d="M8.28053 52.6296C8.53887 51.9862 8.96542 51.4606 9.56018 51.0528C10.1599 50.6327 10.8448 50.3761 11.615 50.283C12.3851 50.19 13.16 50.2999 13.9395 50.6129C14.7066 50.9209 15.3361 51.3749 15.8281 51.9747C16.32 52.5745 16.6435 53.236 16.7985 53.9592C16.9461 54.665 16.8908 55.3396 16.6324 55.9831L15.2612 59.3981L15.0017 59.0783L18.8435 60.6209C19.1652 60.7501 19.3977 60.9584 19.5409 61.2458C19.6718 61.5282 19.6726 61.8303 19.5435 62.152C19.4192 62.4613 19.2122 62.6727 18.9224 62.7862C18.6202 62.8948 18.3082 62.8845 17.9865 62.7553L7.25899 58.4479C6.93729 58.3187 6.71349 58.1068 6.58761 57.812C6.45431 57.4998 6.45226 57.1829 6.58143 56.8612L8.28053 52.6296ZM14.5166 55.1335C14.611 54.8984 14.6039 54.6298 14.4954 54.3276C14.3868 54.0253 14.2077 53.7379 13.958 53.4652C13.6959 53.1876 13.3916 52.9792 13.0452 52.8401C12.6864 52.696 12.3225 52.6361 11.9535 52.6604C11.5846 52.6847 11.2626 52.7709 10.9876 52.9191C10.7002 53.0623 10.5093 53.2515 10.4149 53.4866L9.02879 56.9387L8.78414 56.5818L13.5169 58.4821L13.138 58.5671L14.5166 55.1335Z" fill="black"/>
<path d="M29.4181 40.0451C29.63 39.7707 29.8948 39.6131 30.2128 39.5721C30.5283 39.5125 30.8233 39.5886 31.0977 39.8005C31.3615 40.0042 31.5099 40.2703 31.5426 40.5987C31.573 40.9085 31.4822 41.2006 31.2704 41.475L27.2985 46.6203C27.0866 46.8947 26.8177 47.0576 26.4916 47.1091C26.1631 47.1419 25.8616 47.0524 25.5872 46.8405L16.4366 39.7766C16.1622 39.5647 16.0086 39.2946 15.9758 38.9661C15.9325 38.6294 16.0249 38.3134 16.253 38.0178C16.4486 37.7645 16.7147 37.6162 17.0513 37.5729C17.3855 37.5109 17.6899 37.5858 17.9643 37.7976L26.4975 44.3849L25.9595 44.5255L29.4181 40.0451Z" fill="black"/>
<path d="M34.9142 23.4827L37.493 34.2176C37.5688 34.4767 37.5701 34.7247 37.4967 34.9616C37.4261 35.1799 37.2998 35.3565 37.1177 35.4915C36.8285 35.7058 36.5547 35.7842 36.2963 35.7268C36.038 35.6693 35.8215 35.5227 35.6468 35.2871C35.5754 35.1906 35.516 35.077 35.4688 34.946L32.3485 22.372C32.2754 22.0943 32.2809 21.833 32.3649 21.5881C32.4597 21.3353 32.6168 21.1442 32.8362 21.0148C33.029 20.8719 33.2494 20.7998 33.4975 20.7986C33.7482 20.7787 33.9865 20.8427 34.2124 20.9906L45.1435 27.4771C45.3003 27.5767 45.4224 27.6854 45.5097 27.8032C45.724 28.0924 45.7983 28.3942 45.7325 28.7085C45.6774 29.0149 45.5374 29.2514 45.3125 29.4181C45.1196 29.561 44.8992 29.6331 44.6512 29.6343C44.4139 29.6277 44.177 29.5543 43.9405 29.4143L34.5196 23.9244L34.9142 23.4827ZM36.5382 31.8881L36.0525 29.3853L40.3909 26.17L42.0657 27.7916L36.5382 31.8881Z" fill="black"/>
<path d="M55.1257 9.54301C55.4124 9.43435 55.7106 9.44971 56.02 9.5891C56.3372 9.71129 56.5596 9.94071 56.6872 10.2774C56.7297 10.3896 56.7559 10.5151 56.7657 10.654C56.7833 10.7756 56.776 10.9067 56.7437 11.0473L54.8014 18.7343L54.6491 17.3162L56.683 22.6838C56.8058 23.008 56.7975 23.3248 56.6581 23.6343C56.5265 23.9265 56.3173 24.127 56.0305 24.2357C55.7188 24.3538 55.4106 24.3494 55.1059 24.2225C54.8089 24.0784 54.5989 23.8442 54.4761 23.52L52.4989 18.3021L52.8753 18.8439L46.8017 15.007C46.6156 14.8922 46.4693 14.7694 46.3627 14.6387C46.2561 14.508 46.1792 14.3803 46.132 14.2556C46.0044 13.9189 46.0314 13.595 46.2129 13.2838C46.3944 12.9727 46.6223 12.7651 46.8966 12.6612C47.2457 12.5289 47.6174 12.5877 48.0115 12.8376L53.4803 16.4331L52.9283 16.5567L54.4032 10.4584C54.5232 9.98516 54.7641 9.68002 55.1257 9.54301Z" fill="black"/>
<path d="M89.3677 7.03917C89.6996 7.07062 89.9743 7.21049 90.1918 7.45879C90.4239 7.69507 90.5242 7.97914 90.4928 8.31098C90.4764 8.48354 90.4196 8.65897 90.3224 8.83725L84.3137 19.8796C84.1691 20.1338 83.9777 20.3165 83.7394 20.4279C83.5157 20.5272 83.2911 20.5662 83.0654 20.5448C82.8543 20.5114 82.6548 20.4255 82.467 20.2872C82.2805 20.1356 82.1455 19.9353 82.0619 19.6863L78.2384 7.67196C78.2061 7.58855 78.1871 7.50639 78.1814 7.42549C78.1769 7.33131 78.1785 7.2444 78.186 7.16476C78.2225 6.77982 78.3895 6.501 78.6872 6.32831C78.986 6.14235 79.2616 6.06131 79.5138 6.08522C80.0182 6.13302 80.3587 6.42645 80.5353 6.96552L83.924 17.6328L83.2252 17.5867L88.2009 7.692C88.4744 7.20897 88.8633 6.99137 89.3677 7.03917Z" fill="black"/>
<path d="M98.7385 22.7754C98.6259 23.1033 98.4109 23.3396 98.0933 23.4843C97.7801 23.6164 97.4659 23.6284 97.1506 23.5201C96.7975 23.3989 96.5506 23.1943 96.4098 22.9063C96.2733 22.6057 96.2614 22.2915 96.3739 21.9636L100.128 11.03C100.24 10.7021 100.447 10.47 100.747 10.3335C101.052 10.1844 101.381 10.1705 101.734 10.2917C102.037 10.3957 102.263 10.6001 102.412 10.905C102.578 11.2016 102.605 11.5139 102.492 11.8418L98.7385 22.7754Z" fill="black"/>
<path d="M118.364 18.3517C119.17 18.8736 119.788 19.4886 120.219 20.1967C120.65 20.9048 120.901 21.6707 120.971 22.4945C121.059 23.3144 120.978 24.1513 120.727 25.0052C120.494 25.8552 120.116 26.683 119.594 27.4888C118.891 28.5743 118.054 29.4378 117.082 30.0793C116.118 30.7097 115.091 31.045 114 31.0853C112.921 31.1328 111.838 30.805 110.753 30.1019L106.741 27.5031C106.45 27.3146 106.266 27.06 106.187 26.7393C106.128 26.4147 106.192 26.1068 106.38 25.8159L112.665 16.1136C112.854 15.8226 113.105 15.6436 113.418 15.5766C113.75 15.5057 114.061 15.5644 114.352 15.7529L118.364 18.3517ZM111.835 28.0627C112.54 28.5194 113.233 28.7137 113.912 28.6455C114.599 28.5662 115.235 28.2952 115.821 27.8326C116.425 27.366 116.956 26.7802 117.412 26.0752C117.753 25.5493 118.014 25.0114 118.195 24.4617C118.395 23.908 118.488 23.3724 118.474 22.8548C118.467 22.326 118.342 21.8321 118.099 21.373C117.856 20.9139 117.472 20.514 116.946 20.1733L114.008 18.2705L114.274 18.2281L108.946 26.4533L108.965 26.2034L111.835 28.0627Z" fill="black"/>
<path d="M132.602 30.2175L136.942 35.3218C137.167 35.5859 137.266 35.8777 137.24 36.1972C137.233 36.5182 137.097 36.791 136.833 37.0156C136.579 37.2315 136.293 37.3171 135.975 37.2725C135.676 37.2294 135.414 37.0758 135.19 36.8117L131.562 32.5454L131.938 32.4623L128.967 34.9886L128.985 34.763L132.017 38.3284C132.241 38.5925 132.34 38.8843 132.315 39.2038C132.308 39.5249 132.172 39.7977 131.908 40.0222C131.654 40.2382 131.368 40.3238 131.05 40.2791C130.751 40.236 130.489 40.0824 130.264 39.8183L127.272 36.2986L127.458 36.2712L124.38 38.8881L124.414 38.6497L128.029 42.9007C128.253 43.1648 128.347 43.4609 128.311 43.7891C128.294 44.1187 128.169 44.3829 127.935 44.5816C127.681 44.7975 127.395 44.8831 127.077 44.8385C126.768 44.804 126.501 44.6547 126.276 44.3906L121.936 39.2863C121.712 39.0222 121.608 38.7253 121.625 38.3956C121.661 38.0675 121.811 37.7911 122.075 37.5666L130.882 30.0783C131.146 29.8538 131.438 29.7544 131.758 29.7803C132.096 29.8076 132.377 29.9534 132.602 30.2175Z" fill="black"/>
<path d="M142.593 60.341C141.674 60.7354 140.75 60.9504 139.822 60.9859C138.894 61.0214 138.003 60.8889 137.149 60.5882C136.312 60.2945 135.556 59.8354 134.882 59.2107C134.213 58.5983 133.683 57.8388 133.294 56.9321C132.905 56.0255 132.719 55.1187 132.736 54.2118C132.753 53.3049 132.941 52.4408 133.299 51.6195C133.675 50.8052 134.196 50.0739 134.861 49.4258C135.525 48.7776 136.317 48.2564 137.236 47.8619C138.155 47.4675 139.079 47.2525 140.007 47.217C140.934 47.1815 141.817 47.3106 142.654 47.6042C143.508 47.9049 144.27 48.3614 144.939 48.9738C145.608 49.5862 146.138 50.3457 146.527 51.2524C146.916 52.1591 147.102 53.0659 147.085 53.9728C147.073 54.8919 146.879 55.7587 146.503 56.573C146.145 57.3943 145.633 58.129 144.968 58.7771C144.303 59.4253 143.512 59.9466 142.593 60.341ZM141.567 57.9518C142.388 57.5994 143.058 57.1158 143.578 56.501C144.11 55.881 144.448 55.1989 144.593 54.4547C144.738 53.7106 144.647 52.9587 144.321 52.199C143.995 51.4394 143.513 50.8558 142.873 50.4482C142.234 50.0406 141.513 49.8134 140.709 49.7666C139.911 49.732 139.095 49.8935 138.262 50.2511C137.441 50.6035 136.762 51.0836 136.225 51.6914C135.705 52.3062 135.373 52.9857 135.228 53.7298C135.083 54.474 135.174 55.2259 135.5 55.9855C135.826 56.7452 136.308 57.3288 136.948 57.7363C137.587 58.1439 138.308 58.3711 139.112 58.4179C139.928 58.4595 140.746 58.3041 141.567 57.9518Z" fill="black"/>
<path d="M146.897 96.9332C146.639 97.5766 146.212 98.1022 145.617 98.5099C145.018 98.93 144.333 99.1866 143.563 99.2797C142.793 99.3728 142.018 99.2628 141.238 98.9498C140.471 98.6418 139.841 98.1879 139.35 97.5881C138.858 96.9882 138.534 96.3267 138.379 95.6036C138.232 94.8977 138.287 94.2231 138.545 93.5797L139.916 90.1647L140.176 90.4844L136.334 88.9418C136.012 88.8127 135.78 88.6044 135.637 88.317C135.506 88.0345 135.505 87.7325 135.634 87.4108C135.758 87.1014 135.965 86.89 136.255 86.7765C136.557 86.668 136.869 86.6783 137.191 86.8075L147.919 91.1148C148.24 91.244 148.464 91.456 148.59 91.7508C148.723 92.0629 148.725 92.3799 148.596 92.7016L146.897 96.9332ZM140.661 94.4292C140.567 94.6643 140.574 94.933 140.682 95.2352C140.791 95.5374 140.97 95.8248 141.22 96.0975C141.482 96.3752 141.786 96.5835 142.132 96.7227C142.491 96.8667 142.855 96.9266 143.224 96.9024C143.593 96.8781 143.915 96.7918 144.19 96.6437C144.477 96.5004 144.668 96.3113 144.763 96.0762L146.149 92.6241L146.393 92.9809L141.661 91.0806L142.04 90.9957L140.661 94.4292Z" fill="black"/>
<path d="M125.76 109.518C125.548 109.792 125.283 109.95 124.965 109.991C124.649 110.05 124.354 109.974 124.08 109.762C123.816 109.559 123.668 109.292 123.635 108.964C123.605 108.654 123.695 108.362 123.907 108.088L127.879 102.942C128.091 102.668 128.36 102.505 128.686 102.454C129.015 102.421 129.316 102.51 129.59 102.722L138.741 109.786C139.015 109.998 139.169 110.268 139.202 110.597C139.245 110.933 139.153 111.249 138.925 111.545C138.729 111.798 138.463 111.947 138.126 111.99C137.792 112.052 137.488 111.977 137.213 111.765L128.68 105.178L129.218 105.037L125.76 109.518Z" fill="black"/>
<path d="M120.263 126.08L117.685 115.345C117.609 115.086 117.608 114.838 117.681 114.601C117.751 114.383 117.878 114.206 118.06 114.071C118.349 113.857 118.623 113.778 118.881 113.836C119.14 113.893 119.356 114.04 119.531 114.276C119.602 114.372 119.662 114.486 119.709 114.617L122.829 127.191C122.902 127.468 122.897 127.73 122.813 127.975C122.718 128.227 122.561 128.419 122.341 128.548C122.149 128.691 121.928 128.763 121.68 128.764C121.429 128.784 121.191 128.72 120.965 128.572L110.034 122.086C109.877 121.986 109.755 121.877 109.668 121.76C109.454 121.47 109.379 121.169 109.445 120.854C109.5 120.548 109.64 120.311 109.865 120.145C110.058 120.002 110.278 119.93 110.526 119.928C110.764 119.935 111.001 120.008 111.237 120.148L120.658 125.638L120.263 126.08ZM118.639 117.675L119.125 120.177L114.787 123.393L113.112 121.771L118.639 117.675Z" fill="black"/>
<path d="M100.052 140.02C99.7652 140.128 99.4671 140.113 99.1576 139.974C98.8404 139.851 98.618 139.622 98.4904 139.285C98.4479 139.173 98.4217 139.048 98.4119 138.909C98.3943 138.787 98.4017 138.656 98.4339 138.515L100.376 130.828L100.529 132.247L98.4946 126.879C98.3718 126.555 98.3801 126.238 98.5195 125.928C98.6511 125.636 98.8603 125.436 99.1471 125.327C99.4588 125.209 99.767 125.213 100.072 125.34C100.369 125.484 100.579 125.719 100.702 126.043L102.679 131.261L102.302 130.719L108.376 134.556C108.562 134.671 108.708 134.793 108.815 134.924C108.921 135.055 108.998 135.182 109.046 135.307C109.173 135.644 109.146 135.968 108.965 136.279C108.783 136.59 108.555 136.798 108.281 136.902C107.932 137.034 107.56 136.975 107.166 136.725L101.697 133.13L102.249 133.006L100.774 139.104C100.654 139.578 100.414 139.883 100.052 140.02Z" fill="black"/>
<path d="M65.8099 142.524C65.478 142.492 65.2033 142.352 64.9858 142.104C64.7537 141.868 64.6534 141.584 64.6848 141.252C64.7012 141.079 64.758 140.904 64.8553 140.725L70.8639 129.683C71.0085 129.429 71.1999 129.246 71.4382 129.135C71.6619 129.036 71.8866 128.997 72.1122 129.018C72.3233 129.051 72.5228 129.137 72.7106 129.276C72.8971 129.427 73.0321 129.627 73.1157 129.876L76.9392 141.891C76.9715 141.974 76.9905 142.056 76.9962 142.137C77.0007 142.231 76.9991 142.318 76.9916 142.398C76.9551 142.783 76.7881 143.062 76.4904 143.234C76.1916 143.42 75.916 143.501 75.6638 143.478C75.1594 143.43 74.8189 143.136 74.6423 142.597L71.2536 131.93L71.9524 131.976L66.9767 141.871C66.7032 142.354 66.3143 142.571 65.8099 142.524Z" fill="black"/>
<path d="M56.4391 126.787C56.5517 126.459 56.7668 126.223 57.0843 126.078C57.3975 125.946 57.7117 125.934 58.027 126.043C58.3801 126.164 58.6271 126.368 58.7678 126.656C58.9043 126.957 58.9162 127.271 58.8037 127.599L55.05 138.533C54.9374 138.861 54.7308 139.093 54.4302 139.229C54.1253 139.378 53.7963 139.392 53.4432 139.271C53.1405 139.167 52.9147 138.963 52.7656 138.658C52.5996 138.361 52.5729 138.049 52.6854 137.721L56.4391 126.787Z" fill="black"/>
<path d="M36.8133 131.211C36.0076 130.689 35.3893 130.074 34.9583 129.366C34.5274 128.658 34.2769 127.892 34.2068 127.068C34.1183 126.248 34.1997 125.411 34.451 124.558C34.6839 123.708 35.0613 122.88 35.5832 122.074C36.2864 120.988 37.1237 120.125 38.0953 119.483C39.0597 118.853 40.0871 118.518 41.1776 118.477C42.2568 118.43 43.3392 118.758 44.4247 119.461L48.4366 122.06C48.7275 122.248 48.9121 122.503 48.9903 122.823C49.0501 123.148 48.9857 123.456 48.7972 123.747L42.5124 133.449C42.3239 133.74 42.073 133.919 41.7595 133.986C41.4276 134.057 41.1161 133.998 40.8252 133.81L36.8133 131.211ZM43.3421 121.5C42.6371 121.043 41.9448 120.849 41.2652 120.917C40.5784 120.997 39.9422 121.268 39.3565 121.73C38.7525 122.197 38.2221 122.783 37.7654 123.488C37.4247 124.013 37.1637 124.551 36.9823 125.101C36.7825 125.655 36.6897 126.19 36.704 126.708C36.711 127.237 36.8358 127.731 37.0786 128.19C37.3213 128.649 37.7057 129.049 38.2316 129.389L41.1692 131.292L40.9035 131.335L46.2314 123.109L46.2125 123.359L43.3421 121.5Z" fill="black"/>
<path d="M22.5757 119.345L18.2356 114.241C18.0111 113.977 17.9117 113.685 17.9376 113.366C17.9446 113.045 18.0802 112.772 18.3443 112.547C18.5982 112.331 18.8842 112.246 19.2022 112.29C19.5014 112.333 19.7633 112.487 19.9878 112.751L23.6154 117.017L23.2397 117.1L26.2109 114.574L26.1926 114.8L23.1611 111.234C22.9365 110.97 22.8372 110.678 22.863 110.359C22.8701 110.038 23.0057 109.765 23.2698 109.541C23.5237 109.325 23.8097 109.239 24.1277 109.284C24.4269 109.327 24.6887 109.48 24.9133 109.744L27.906 113.264L27.7193 113.292L30.7971 110.675L30.7636 110.913L27.1491 106.662C26.9245 106.398 26.8303 106.102 26.8663 105.774C26.8835 105.444 27.0089 105.18 27.2425 104.981C27.4965 104.765 27.7824 104.68 28.1004 104.724C28.4098 104.759 28.6767 104.908 28.9013 105.172L33.2414 110.276C33.4659 110.541 33.5696 110.837 33.5524 111.167C33.5164 111.495 33.3663 111.772 33.1022 111.996L24.2954 119.484C24.0313 119.709 23.7395 119.808 23.42 119.782C23.0817 119.755 22.8002 119.609 22.5757 119.345Z" fill="black"/>
<path d="M12.585 89.2218C13.504 88.8273 14.4274 88.6124 15.3552 88.5768C16.2831 88.5413 17.1743 88.6739 18.0289 88.9745C18.8659 89.2682 19.6216 89.7274 20.296 90.352C20.9651 90.9644 21.4942 91.7239 21.8834 92.6306C22.2726 93.5373 22.4586 94.4441 22.4416 95.351C22.4246 96.2579 22.2369 97.122 21.8784 97.9433C21.5025 98.7576 20.982 99.4888 20.3171 100.137C19.6522 100.785 18.8602 101.306 17.9413 101.701C17.0224 102.095 16.099 102.31 15.1711 102.346C14.2432 102.381 13.3608 102.252 12.5238 101.959C11.6692 101.658 10.9074 101.201 10.2383 100.589C9.56914 99.9765 9.04 99.217 8.65083 98.3103C8.26167 97.4037 8.07559 96.4969 8.0926 95.59C8.10435 94.6708 8.2982 93.8041 8.67417 92.9898C9.03262 92.1685 9.54431 91.4338 10.2092 90.7856C10.8742 90.1375 11.6661 89.6162 12.585 89.2218ZM13.6105 91.611C12.7896 91.9633 12.1193 92.4469 11.5997 93.0617C11.0678 93.6818 10.7294 94.3639 10.5845 95.108C10.4396 95.8522 10.5302 96.6041 10.8563 97.3637C11.1823 98.1234 11.665 98.707 12.3042 99.1145C12.9435 99.5221 13.6649 99.7493 14.4685 99.7962C15.2669 99.8307 16.0827 99.6692 16.9158 99.3116C17.7367 98.9592 18.4157 98.4792 18.9529 97.8714C19.4725 97.2566 19.8048 96.5771 19.9497 95.8329C20.0946 95.0888 20.004 94.3369 19.678 93.5772C19.3519 92.8176 18.8693 92.234 18.23 91.8264C17.5908 91.4188 16.8693 91.1916 16.0657 91.1448C15.2498 91.1032 14.4314 91.2586 13.6105 91.611Z" fill="black"/>
</svg>
