<svg width="1440" height="47" viewBox="0 0 1440 47" fill="none" xmlns="http://www.w3.org/2000/svg">
<path d="M-280 23.5C-266.667 5.5 -253.333 5.5 -240 23.5C-226.667 41.5 -213.333 41.5 -200 23.5C-186.667 5.5 -173.333 5.5 -160 23.5C-146.667 41.5 -133.333 41.5 -120 23.5C-106.667 5.5 -93.3333 5.5 -80 23.5C-66.6667 41.5 -53.3333 41.5 -40 23.5C-26.6667 5.5 -13.3333 5.5 0 23.5C13.3333 41.5 26.6667 41.5 40 23.5C53.3333 5.5 66.6667 5.5 80 23.5C93.3333 41.5 106.667 41.5 120 23.5C133.333 5.5 146.667 5.5 160 23.5C173.333 41.5 186.667 41.5 200 23.5C213.333 5.5 226.667 5.5 240 23.5C253.333 41.5 266.667 41.5 280 23.5C293.333 5.5 306.667 5.5 320 23.5C333.333 41.5 346.667 41.5 360 23.5C373.333 5.5 386.667 5.5 400 23.5C413.333 41.5 426.667 41.5 440 23.5C453.333 5.5 466.667 5.5 480 23.5C493.333 41.5 506.667 41.5 520 23.5C533.333 5.5 546.667 5.5 560 23.5C573.333 41.5 586.667 41.5 600 23.5C613.333 5.5 626.667 5.5 640 23.5C653.333 41.5 666.667 41.5 680 23.5C693.333 5.5 706.667 5.5 720 23.5C733.333 41.5 746.667 41.5 760 23.5C773.333 5.5 786.667 5.5 800 23.5C813.333 41.5 826.667 41.5 840 23.5C853.333 5.5 866.667 5.5 880 23.5C893.333 41.5 906.667 41.5 920 23.5C933.333 5.5 946.667 5.5 960 23.5C973.333 41.5 986.667 41.5 1000 23.5C1013.33 5.5 1026.67 5.5 1040 23.5C1053.33 41.5 1066.67 41.5 1080 23.5C1093.33 5.5 1106.67 5.5 1120 23.5C1133.33 41.5 1146.67 41.5 1160 23.5C1173.33 5.5 1186.67 5.5 1200 23.5C1213.33 41.5 1226.67 41.5 1240 23.5C1253.33 5.5 1266.67 5.5 1280 23.5C1293.33 41.5 1306.67 41.5 1320 23.5C1333.33 5.5 1346.67 5.5 1360 23.5C1373.33 41.5 1386.67 41.5 1400 23.5C1413.33 5.5 1426.67 5.5 1440 23.5C1453.33 41.5 1466.67 41.5 1480 23.5C1493.33 5.5 1506.67 5.5 1520 23.5C1533.33 41.5 1546.67 41.5 1560 23.5C1573.33 5.5 1586.67 5.5 1600 23.5C1613.33 41.5 1626.67 41.5 1640 23.5C1653.33 5.5 1666.67 5.5 1680 23.5C1693.33 41.5 1706.67 41.5 1720 23.5" stroke="#F3BA42" stroke-width="20"/>
</svg>
