<svg width="281" height="262" viewBox="0 0 281 262" fill="none" xmlns="http://www.w3.org/2000/svg">
<path d="M125.252 12.1188L153.3 48.4517L153.613 48.8572L154.105 48.7131L198.152 35.8054L199.487 81.6855L199.502 82.1975L199.984 82.3699L243.206 97.8177L217.319 135.72L217.03 136.143L217.319 136.566L243.206 174.469L199.984 189.917L199.502 190.089L199.487 190.601L198.152 236.481L154.105 223.574L153.613 223.43L153.3 223.835L125.252 260.168L97.2039 223.835L96.8909 223.43L96.3993 223.574L52.3521 236.481L51.0167 190.601L51.0018 190.089L50.5195 189.917L7.29755 174.469L33.1848 136.566L33.4737 136.143L33.1848 135.72L7.29754 97.8177L50.5195 82.3699L51.0018 82.1975L51.0167 81.6855L52.3521 35.8054L96.3993 48.7131L96.8909 48.8572L97.2039 48.4517L125.252 12.1188Z" fill="#FFE558" stroke="black" stroke-width="1.5"/>
<path d="M138.322 7.76226L166.37 44.0951L166.683 44.5006L167.174 44.3565L211.222 31.4488L212.557 77.3289L212.572 77.841L213.054 78.0134L256.276 93.4611L230.389 131.364L230.1 131.787L230.389 132.21L256.276 170.113L213.054 185.56L212.572 185.733L212.557 186.245L211.222 232.125L167.174 219.217L166.683 219.073L166.37 219.479L138.322 255.811L110.274 219.479L109.961 219.073L109.469 219.217L65.4219 232.125L64.0865 186.245L64.0716 185.733L63.5892 185.56L20.3673 170.113L46.2546 132.21L46.5435 131.787L46.2546 131.364L20.3673 93.4611L63.5892 78.0134L64.0716 77.841L64.0865 77.3289L65.4219 31.4488L109.469 44.3565L109.961 44.5006L110.274 44.0951L138.322 7.76226Z" fill="#FFE558" stroke="black" stroke-width="1.5"/>
<path d="M155.748 1.22735L183.796 37.5602L184.109 37.9657L184.601 37.8216L228.648 24.9139L229.983 70.794L229.998 71.3061L230.481 71.4785L273.702 86.9262L247.815 124.829L247.526 125.252L247.815 125.675L273.702 163.578L230.481 179.025L229.998 179.198L229.983 179.71L228.648 225.59L184.601 212.682L184.109 212.538L183.796 212.944L155.748 249.277L127.7 212.944L127.387 212.538L126.895 212.682L82.8482 225.59L81.5128 179.71L81.4979 179.198L81.0155 179.025L37.7936 163.578L63.6809 125.675L63.9698 125.252L63.6809 124.829L37.7936 86.9262L81.0155 71.4785L81.4979 71.3061L81.5128 70.794L82.8482 24.9139L126.895 37.8216L127.387 37.9657L127.7 37.5602L155.748 1.22735Z" fill="#FFFDF1" stroke="black" stroke-width="1.5"/>
</svg>
