<?xml version="1.0" standalone="no"?>
<!DOCTYPE svg PUBLIC "-//W3C//DTD SVG 20010904//EN"
 "http://www.w3.org/TR/2001/REC-SVG-20010904/DTD/svg10.dtd">
<svg version="1.0" xmlns="http://www.w3.org/2000/svg"
 width="258.000000pt" height="258.000000pt" viewBox="0 0 258.000000 258.000000"
 preserveAspectRatio="xMidYMid meet">
<metadata>
Created by potrace 1.14, written by Peter Selinger 2001-2017
</metadata>
<g transform="translate(0.000000,258.000000) scale(0.100000,-0.100000)"
fill="#000000" stroke="none">
<path d="M1590 2352 c0 -5 -15 -16 -32 -23 -33 -14 -39 -15 -59 -18 -8 -1 -8
-6 1 -16 9 -11 9 -15 1 -15 -7 0 -10 -4 -6 -9 3 -5 -5 -17 -17 -25 -18 -13
-19 -16 -5 -16 10 0 17 -8 17 -19 0 -11 6 -21 12 -23 11 -4 -26 -60 -67 -104
-6 -6 -28 -34 -50 -62 -21 -29 -45 -52 -53 -52 -7 0 -11 4 -7 9 3 5 -2 16 -10
24 -8 9 -15 20 -15 25 0 30 -68 70 -71 42 -2 -13 -6 -29 -8 -32 -2 -2 -4 -27
-7 -57 -3 -30 -9 -61 -15 -67 -6 -7 -8 -18 -4 -23 13 -21 -17 -50 -71 -71 -64
-24 -97 -44 -87 -53 3 -4 2 -7 -4 -7 -6 0 -14 -7 -17 -16 -4 -10 -2 -13 7 -8
7 5 5 0 -3 -11 -8 -10 -14 -20 -12 -22 6 -9 1 -24 -7 -19 -5 4 -7 -3 -4 -14 3
-11 1 -20 -4 -20 -5 0 -9 -14 -8 -30 1 -17 -2 -33 -7 -36 -4 -3 -8 -16 -8 -30
0 -13 -4 -24 -8 -24 -4 0 -8 -52 -9 -115 0 -67 3 -115 9 -115 5 0 7 -3 4 -8
-2 -4 4 -25 14 -47 10 -21 16 -45 14 -52 -2 -7 -7 -21 -10 -30 -5 -16 -10 -64
-18 -173 -2 -32 -25 -89 -26 -65 0 6 -3 6 -8 0 -10 -15 -66 -50 -74 -47 -5 1
-8 -3 -8 -8 0 -13 -49 -57 -71 -65 -17 -6 -46 -62 -41 -78 1 -5 -2 -6 -7 -3
-5 4 -12 2 -16 -4 -3 -5 -2 -10 2 -10 13 0 10 -43 -4 -58 -7 -7 -15 -11 -17
-10 -3 2 -14 -4 -24 -12 -10 -8 -36 -24 -58 -35 -21 -10 -40 -20 -42 -21 -2
-1 2 -22 9 -48 10 -40 19 -52 33 -43 2 1 13 -6 23 -16 11 -9 23 -14 26 -11 4
4 14 1 22 -6 9 -7 30 -14 46 -15 59 -5 87 -32 80 -77 -2 -13 38 -28 79 -31 22
-1 40 -6 40 -10 0 -5 4 -6 8 -3 5 3 19 -1 33 -7 13 -7 44 -19 69 -27 25 -7 52
-19 60 -26 8 -7 35 -21 60 -32 53 -23 93 -56 82 -67 -4 -5 1 -5 11 -2 9 4 17
3 17 -2 0 -4 6 -8 13 -9 14 -2 48 -8 97 -17 104 -20 135 -21 152 -4 12 13 13
20 5 29 -9 10 -9 11 0 6 6 -3 20 2 30 12 15 16 34 19 122 20 57 0 113 -3 125
-8 32 -12 61 13 58 49 -2 16 3 33 12 41 9 7 16 22 16 34 0 12 8 38 19 59 47
93 58 131 66 240 2 32 10 66 17 75 11 13 11 14 -1 7 -11 -6 -13 -4 -8 7 3 9 0
21 -6 28 -10 10 -8 12 7 6 16 -5 17 -4 6 9 -10 12 -10 18 1 32 8 9 9 14 3 10
-8 -4 -11 16 -11 66 -1 40 -1 83 -2 97 0 14 0 76 2 138 1 63 -1 116 -4 117 -3
2 -5 19 -4 37 1 18 -4 39 -11 46 -7 7 -11 19 -8 26 3 8 0 17 -6 21 -9 6 -9 10
1 16 10 6 11 9 2 9 -7 0 -13 11 -13 24 0 14 -5 37 -12 53 -6 15 -12 30 -13 33
-1 3 -5 13 -8 23 -16 40 -19 54 -25 97 -3 25 -5 60 -6 78 0 17 -3 32 -7 32 -4
0 -14 18 -23 39 -16 42 -14 80 6 93 7 4 9 8 3 8 -5 0 -10 24 -11 53 -1 74 -7
117 -16 117 -4 0 -8 6 -8 14 0 7 -7 19 -15 26 -24 20 -66 -2 -130 -69 -33 -34
-62 -56 -66 -50 -12 20 -9 200 4 217 13 18 47 26 47 11 0 -5 7 -6 15 -3 18 7
20 30 3 37 -8 4 -7 6 3 6 9 1 22 8 29 16 10 12 8 14 -9 10 -12 -2 -21 0 -21 6
0 5 7 9 16 9 9 0 14 6 11 13 -2 6 -10 11 -17 9 -7 -2 -10 3 -7 11 4 11 0 13
-16 10 -22 -5 -22 -5 -2 11 11 10 14 14 6 10 -10 -5 -13 -3 -9 8 7 17 -23 21
-34 4 -5 -7 -8 -4 -8 7 0 10 -4 15 -10 12 -5 -3 -10 1 -10 9 0 8 -4 18 -10 21
-5 3 -10 2 -10 -3z"/>
</g>
</svg>
